<svg width="30" height="30" viewBox="0 0 30 30" fill="none" xmlns="http://www.w3.org/2000/svg">
<path d="M20.0535 10.6916C18.5083 9.59792 16.7888 8.98734 15.031 8.9082C13.2776 8.99234 11.563 9.6053 10.0225 10.6988" stroke="white" stroke-linecap="round" stroke-linejoin="round"/>
<path d="M5.19531 6.65699C6.03777 5.94227 6.95561 5.31535 7.93511 4.78837C10.1127 3.61681 12.5346 2.97187 15.0065 2.90527C17.481 2.97275 19.9049 3.62069 22.083 4.79687C23.0558 5.32213 23.9672 5.94617 24.8042 6.65699" stroke="white" stroke-linecap="round" stroke-linejoin="round"/>
<path d="M21.4288 23.3046H24.0404V25.0456C24.0404 26.488 22.8712 27.6572 21.4288 27.6572H19.6877C18.2454 27.6572 17.0762 26.488 17.0762 25.0456V19.8225C17.0762 18.3802 18.2454 17.2109 19.6877 17.2109H21.4288C22.5658 17.2109 23.5332 17.9377 23.8918 18.952" stroke="white" stroke-linecap="round" stroke-linejoin="round"/>
<path d="M13.9006 25.0456H5.82807C5.47861 25.0456 5.19531 24.7624 5.19531 24.4128C5.19531 24.2596 5.25093 24.1116 5.35187 23.9962L11.1101 17.4154C11.2238 17.2855 11.388 17.2109 11.5607 17.2109C11.8914 17.2109 12.1595 17.479 12.1595 17.8097V27.6572" stroke="white" stroke-linecap="round" stroke-linejoin="round"/>
</svg>
