<svg width="30" height="30" viewBox="0 0 30 30" fill="none" xmlns="http://www.w3.org/2000/svg">
<path d="M21.2596 21.2598H23.7324C24.3506 21.2083 24.9268 20.9264 25.3468 20.4698C25.7669 20.0134 26 19.4158 26 18.7955C26 18.1752 25.7669 17.5775 25.3468 17.1211C24.9268 16.6646 24.3506 16.3827 23.7324 16.3312H19.81L17.2861 13.8073L24.2099 9.54381C24.7429 9.2143 25.131 8.69469 25.2956 8.09005C25.4602 7.48539 25.3891 6.84079 25.0967 6.28654C24.9676 5.96934 24.7749 5.68195 24.5304 5.44213C24.286 5.20228 23.995 5.01507 23.6754 4.89202C23.3558 4.76898 23.0144 4.71272 22.6723 4.72671C22.3301 4.74071 21.9944 4.82466 21.6859 4.9734L12.6474 9.15158L8.28165 4.73465C7.81131 4.26426 7.17333 4 6.50806 4C5.84279 4 5.20481 4.26426 4.73447 4.73465C4.26412 5.20503 3.99979 5.84301 3.99979 6.50824C3.99979 7.17346 4.26412 7.81144 4.73447 8.28184L9.15139 12.6476L4.97322 21.7714C4.83577 22.0751 4.76073 22.4036 4.75272 22.737C4.74453 23.0702 4.80336 23.4019 4.92598 23.7121C5.04843 24.0221 5.23193 24.3046 5.46556 24.5425C5.69937 24.7804 5.97837 24.969 6.28636 25.0969C6.84061 25.3893 7.48524 25.4603 8.0898 25.2957C8.69452 25.1311 9.21415 24.743 9.54363 24.2101L13.8071 17.2862L16.331 19.8102V23.7326C16.3825 24.3508 16.6644 24.927 17.1209 25.347C17.5774 25.7671 18.175 26.0002 18.7953 26.0002C19.4156 26.0002 20.0133 25.7671 20.4697 25.347C20.9262 24.927 21.2081 24.3508 21.2596 23.7326V21.2598Z" stroke="white" stroke-linecap="round" stroke-linejoin="round"/>
</svg>
