<svg width="30" height="30" viewBox="0 0 30 30" fill="none" xmlns="http://www.w3.org/2000/svg">
<path d="M21.8287 23.8287H24.5263C25.2006 23.7725 25.8292 23.465 26.2875 22.9669C26.7457 22.4691 27 21.8171 27 21.1404C27 20.4637 26.7457 19.8117 26.2875 19.3137C25.8292 18.8158 25.2006 18.5083 24.5263 18.4521H20.2474L17.494 15.6987L25.0472 11.0477C25.6287 10.6883 26.052 10.1214 26.2316 9.46183C26.4111 8.80221 26.3336 8.09902 26.0146 7.49439C25.8737 7.14835 25.6635 6.83484 25.3969 6.57321C25.1302 6.31157 24.8128 6.10733 24.4641 5.97311C24.1155 5.83888 23.743 5.7775 23.3698 5.79277C22.9965 5.80804 22.6303 5.89962 22.2938 6.06188L12.4337 10.6198L7.67108 5.80142C7.15798 5.28828 6.46201 5 5.73627 5C5.01053 5 4.31456 5.28828 3.80146 5.80142C3.28836 6.31456 3 7.01054 3 7.73624C3 8.46192 3.28836 9.1579 3.80146 9.67105L8.61988 14.4337L4.06191 24.3868C3.91196 24.7181 3.83011 25.0764 3.82137 25.4401C3.81244 25.8037 3.87662 26.1655 4.01038 26.5039C4.14396 26.8421 4.34413 27.1502 4.59901 27.4097C4.85407 27.6693 5.15843 27.875 5.49442 28.0145C6.09904 28.3336 6.80227 28.411 7.46178 28.2315C8.12148 28.0519 8.68834 27.6285 9.04777 27.0471L13.6988 19.4939L16.4522 22.2473V26.5262C16.5083 27.2006 16.8158 27.8293 17.3138 28.2875C17.8117 28.7457 18.4637 29 19.1404 29C19.8171 29 20.4691 28.7457 20.967 28.2875C21.465 27.8293 21.7725 27.2006 21.8287 26.5262V23.8287Z" stroke="white" stroke-linecap="round" stroke-linejoin="round"/>
</svg>
