<svg width="30" height="30" viewBox="0 0 30 30" fill="none" xmlns="http://www.w3.org/2000/svg">
<g clip-path="url(#clip0_391_120)">
<path d="M9.62305 14.0059V18.6277" stroke="white" stroke-linecap="round" stroke-linejoin="round"/>
<path d="M11.9343 16.3174H7.3125" stroke="white" stroke-linecap="round" stroke-linejoin="round"/>
<path d="M11.1326 9.05469H9.29857C6.24127 9.05469 3.6729 11.3535 3.33528 14.3921L2.51089 21.8115C2.21037 24.5163 4.32749 26.8817 7.04879 26.8817C8.77819 26.8817 10.3592 25.9045 11.1326 24.3577L11.8514 22.9201H17.7937L18.5125 24.3577C19.2859 25.9045 20.8669 26.8817 22.5964 26.8817C25.3176 26.8817 27.4348 24.5163 27.1342 21.8115L26.3098 14.3921" stroke="white" stroke-linecap="round" stroke-linejoin="round"/>
<path d="M18.2891 17.4727C18.2891 17.1992 18.5108 16.9775 18.7842 16.9775C19.0577 16.9775 19.2794 17.1992 19.2794 17.4727" stroke="white" stroke-linecap="round" stroke-linejoin="round"/>
<path d="M18.2891 17.4727C18.2891 17.7461 18.5108 17.9679 18.7842 17.9679C19.0577 17.9679 19.2794 17.7461 19.2794 17.4727" stroke="white" stroke-linecap="round" stroke-linejoin="round"/>
<path d="M15.3487 7.98704C14.6468 7.86494 14.6468 6.85738 15.3487 6.73528C17.8914 6.29292 19.9138 4.3562 20.4657 1.83498L20.508 1.64172C20.6598 0.948058 21.6475 0.943742 21.8055 1.63605L21.8569 1.86127C22.4291 4.37058 24.4521 6.29096 26.9877 6.73208C27.6931 6.85482 27.6931 7.8675 26.9877 7.99024C24.4521 8.43136 22.4291 10.3517 21.8569 12.861L21.8055 13.0863C21.6475 13.7786 20.6598 13.7743 20.508 13.0806L20.4657 12.8873C19.9138 10.3661 17.8914 8.4294 15.3487 7.98704Z" stroke="white" stroke-linecap="round" stroke-linejoin="round"/>
</g>
<defs>
<clipPath id="clip0_391_120">
<rect width="28" height="28" fill="white" transform="translate(1)"/>
</clipPath>
</defs>
</svg>
