<svg width="30" height="30" viewBox="0 0 30 30" fill="none" xmlns="http://www.w3.org/2000/svg">
<g clip-path="url(#clip0_391_120)">
<path d="M9.62305 15.0059V19.6277" stroke="white" stroke-linecap="round" stroke-linejoin="round"/>
<path d="M11.9343 17.3174H7.3125" stroke="white" stroke-linecap="round" stroke-linejoin="round"/>
<path d="M11.1326 10.0547H9.29857C6.24127 10.0547 3.6729 12.3535 3.33528 15.3921L2.51089 22.8115C2.21037 25.5163 4.32749 27.8817 7.04879 27.8817C8.77819 27.8817 10.3592 26.9045 11.1326 25.3577L11.8514 23.9201H17.7937L18.5125 25.3577C19.2859 26.9045 20.8669 27.8817 22.5964 27.8817C25.3176 27.8817 27.4348 25.5163 27.1342 22.8115L26.3098 15.3921" stroke="white" stroke-linecap="round" stroke-linejoin="round"/>
<path d="M18.2891 18.4727C18.2891 18.1992 18.5108 17.9775 18.7842 17.9775C19.0577 17.9775 19.2794 18.1992 19.2794 18.4727" stroke="white" stroke-linecap="round" stroke-linejoin="round"/>
<path d="M18.2891 18.4727C18.2891 18.7461 18.5108 18.9679 18.7842 18.9679C19.0577 18.9679 19.2794 18.7461 19.2794 18.4727" stroke="white" stroke-linecap="round" stroke-linejoin="round"/>
<path d="M15.3487 8.98704C14.6468 8.86494 14.6468 7.85738 15.3487 7.73528C17.8914 7.29292 19.9138 5.3562 20.4657 2.83498L20.508 2.64172C20.6598 1.94806 21.6475 1.94374 21.8055 2.63605L21.8569 2.86127C22.4291 5.37058 24.4521 7.29096 26.9877 7.73208C27.6931 7.85482 27.6931 8.8675 26.9877 8.99024C24.4521 9.43136 22.4291 11.3517 21.8569 13.861L21.8055 14.0863C21.6475 14.7786 20.6598 14.7743 20.508 14.0806L20.4657 13.8873C19.9138 11.3661 17.8914 9.4294 15.3487 8.98704Z" stroke="white" stroke-linecap="round" stroke-linejoin="round"/>
</g>
<defs>
<clipPath id="clip0_391_120">
<rect width="28" height="28" fill="white" transform="translate(1 1)"/>
</clipPath>
</defs>
</svg>
