<svg width="30" height="30" viewBox="0 0 30 30" fill="none" xmlns="http://www.w3.org/2000/svg">
<path d="M7.9871 11.9415C7.8864 11.6566 7.73098 11.3975 7.5335 11.1768C7.11342 10.7075 6.50298 10.4121 5.82352 10.4121H4.0478C2.91683 10.4121 2 11.3289 2 12.4599C2 13.4223 2.67008 14.2548 3.6102 14.4604L6.31378 15.0518C7.36696 15.2822 8.11764 16.2155 8.11764 17.2936C8.11764 18.5606 7.09054 19.5886 5.82352 19.5886H4.29412C3.29524 19.5886 2.44547 18.9502 2.13054 18.0592" stroke="white" stroke-linecap="round" stroke-linejoin="round"/>
<path d="M27.87 11.9415C27.7692 11.6566 27.6138 11.3975 27.4164 11.1768C26.9962 10.7075 26.3858 10.4121 25.7064 10.4121H23.9306C22.7996 10.4121 21.8828 11.3289 21.8828 12.4599C21.8828 13.4223 22.5528 14.2548 23.493 14.4604L26.1966 15.0518C27.2498 15.2822 28.0004 16.2155 28.0004 17.2936C28.0004 18.5606 26.9734 19.5886 25.7064 19.5886H24.177C23.178 19.5886 22.3282 18.9502 22.0134 18.0592" stroke="white" stroke-linecap="round" stroke-linejoin="round"/>
<path d="M11.9414 12.7062V17.2945C11.9414 18.5615 12.9685 19.5886 14.2355 19.5886H15.7649C17.0319 19.5886 18.0591 18.5615 18.0591 17.2945V12.7062C18.0591 11.4392 17.0319 10.4121 15.7649 10.4121H14.2355C12.9685 10.4121 11.9414 11.4392 11.9414 12.7062Z" stroke="white" stroke-linecap="round" stroke-linejoin="round"/>
</svg>
