<svg width="30" height="30" viewBox="0 0 30 30" fill="none" xmlns="http://www.w3.org/2000/svg">
<path d="M26.64 8.5L21 11V8C21 7.46956 20.7893 6.96086 20.4142 6.58578C20.0391 6.21072 19.5304 6 19 6H4C3.46956 6 2.96086 6.21072 2.58579 6.58578C2.21071 6.96086 2 7.46956 2 8V22C2 22.5304 2.21071 23.0392 2.58579 23.4142C2.96086 23.7892 3.46956 24 4 24H19C19.5304 24 20.0391 23.7892 20.4142 23.4142C20.7893 23.0392 21 22.5304 21 22V19L26.64 21.5C26.792 21.5586 26.9562 21.5794 27.118 21.56C27.2798 21.5408 27.4346 21.4824 27.5686 21.3896C27.7026 21.297 27.812 21.173 27.8872 21.0284C27.9624 20.8838 28.0012 20.723 28 20.56V9.44C28.0012 9.27702 27.9624 9.11622 27.8872 8.97162C27.812 8.82702 27.7026 8.70298 27.5686 8.61032C27.4346 8.51764 27.2798 8.45916 27.118 8.43992C26.9562 8.4207 26.792 8.44132 26.64 8.5Z" stroke="white" stroke-linecap="round" stroke-linejoin="round"/>
</svg>
