<svg width="639" height="134" viewBox="0 0 639 134" fill="none" xmlns="http://www.w3.org/2000/svg">
<g clip-path="url(#clip0_412_124)">
<path d="M81.3438 95.875V38.1113C81.3438 37.4766 81.3649 36.8841 81.4072 36.334C81.4495 35.7415 81.5553 35.2337 81.7246 34.8105C81.9362 34.3451 82.2113 33.9854 82.5498 33.7314C82.9307 33.4352 83.4385 33.2871 84.0732 33.2871C85.1735 33.2871 85.8929 33.7738 86.2314 34.7471C86.57 35.6781 86.7393 36.7995 86.7393 38.1113V99.9375C86.7393 102.646 86.0199 104 84.5811 104C83.6077 104 82.4017 103.344 80.9629 102.032L15.5186 41.4121V99.5566C15.5186 100.784 15.3281 101.842 14.9473 102.73C14.6087 103.577 13.9316 104 12.916 104C11.6888 104 10.9059 103.577 10.5674 102.73C10.2712 101.842 10.123 100.784 10.123 99.5566V37.4131C10.123 36.1436 10.3558 35.1702 10.8213 34.4932C11.2868 33.8161 11.9215 33.4775 12.7256 33.4775C13.7835 33.4775 15.0107 34.1123 16.4072 35.3818L81.3438 95.875ZM134.029 57.8525C130.094 57.8525 126.603 58.1911 123.556 58.8682C120.509 59.5452 117.906 60.6455 115.748 62.1689C113.632 63.6501 111.982 65.5755 110.797 67.9453C109.612 70.3151 108.935 73.2139 108.766 76.6416H156.627V73.2139C156.627 71.098 156.225 69.109 155.421 67.2471C154.659 65.3851 153.39 63.7559 151.612 62.3594C149.835 60.9629 147.507 59.8626 144.63 59.0586C141.752 58.2546 138.219 57.8525 134.029 57.8525ZM130.729 100.89C134.749 100.89 138.261 100.636 141.266 100.128C144.27 99.6201 146.852 99.0065 149.01 98.2871C151.168 97.5677 152.924 96.8271 154.278 96.0654C155.675 95.3037 156.754 94.6689 157.516 94.1611C157.77 94.0765 157.939 94.0342 158.023 94.0342C158.489 94.0342 158.912 94.2669 159.293 94.7324C159.716 95.1556 159.928 95.6211 159.928 96.1289C159.928 96.5944 159.716 96.9753 159.293 97.2715C158.912 97.6523 158.087 98.2448 156.817 99.0488C155.59 99.8529 153.813 100.678 151.485 101.524C149.158 102.328 146.28 103.048 142.853 103.683C139.425 104.317 135.362 104.635 130.665 104.635C125.756 104.635 121.588 104.021 118.16 102.794C114.732 101.567 111.939 99.8529 109.781 97.6523C107.623 95.4518 106.057 92.807 105.084 89.7178C104.111 86.6286 103.624 83.2432 103.624 79.5615C103.624 74.6527 104.407 70.569 105.973 67.3105C107.538 64.0521 109.675 61.4495 112.384 59.5029C115.134 57.514 118.351 56.1175 122.032 55.3135C125.756 54.5094 129.755 54.1074 134.029 54.1074C142.831 54.1074 149.412 55.8001 153.771 59.1855C158.172 62.5286 160.372 67.3317 160.372 73.5947C160.372 74.1872 160.33 74.8431 160.245 75.5625C160.16 76.2819 160.034 76.9801 159.864 77.6572C159.737 78.292 159.568 78.8421 159.356 79.3076C159.187 79.7308 159.018 79.9424 158.849 79.9424H140.187L108.702 79.3076C108.787 83.2432 109.295 86.5863 110.226 89.3369C111.199 92.0452 112.595 94.2669 114.415 96.002C116.277 97.6947 118.562 98.943 121.271 99.7471C123.979 100.509 127.132 100.89 130.729 100.89ZM205.758 57.8525C201.822 57.8525 198.331 58.1911 195.284 58.8682C192.237 59.5452 189.635 60.6455 187.477 62.1689C185.361 63.6501 183.71 65.5755 182.525 67.9453C181.34 70.3151 180.663 73.2139 180.494 76.6416H228.355V73.2139C228.355 71.098 227.953 69.109 227.149 67.2471C226.388 65.3851 225.118 63.7559 223.341 62.3594C221.563 60.9629 219.236 59.8626 216.358 59.0586C213.481 58.2546 209.947 57.8525 205.758 57.8525ZM202.457 100.89C206.477 100.89 209.99 100.636 212.994 100.128C215.999 99.6201 218.58 99.0065 220.738 98.2871C222.896 97.5677 224.653 96.8271 226.007 96.0654C227.403 95.3037 228.482 94.6689 229.244 94.1611C229.498 94.0765 229.667 94.0342 229.752 94.0342C230.217 94.0342 230.641 94.2669 231.021 94.7324C231.445 95.1556 231.656 95.6211 231.656 96.1289C231.656 96.5944 231.445 96.9753 231.021 97.2715C230.641 97.6523 229.815 98.2448 228.546 99.0488C227.319 99.8529 225.541 100.678 223.214 101.524C220.886 102.328 218.009 103.048 214.581 103.683C211.153 104.317 207.091 104.635 202.394 104.635C197.485 104.635 193.316 104.021 189.889 102.794C186.461 101.567 183.668 99.8529 181.51 97.6523C179.352 95.4518 177.786 92.807 176.812 89.7178C175.839 86.6286 175.353 83.2432 175.353 79.5615C175.353 74.6527 176.135 70.569 177.701 67.3105C179.267 64.0521 181.404 61.4495 184.112 59.5029C186.863 57.514 190.079 56.1175 193.761 55.3135C197.485 54.5094 201.484 54.1074 205.758 54.1074C214.56 54.1074 221.14 55.8001 225.499 59.1855C229.9 62.5286 232.101 67.3317 232.101 73.5947C232.101 74.1872 232.058 74.8431 231.974 75.5625C231.889 76.2819 231.762 76.9801 231.593 77.6572C231.466 78.292 231.297 78.8421 231.085 79.3076C230.916 79.7308 230.746 79.9424 230.577 79.9424H211.915L180.431 79.3076C180.515 83.2432 181.023 86.5863 181.954 89.3369C182.927 92.0452 184.324 94.2669 186.144 96.002C188.006 97.6947 190.291 98.943 192.999 99.7471C195.707 100.509 198.86 100.89 202.457 100.89ZM275.328 104.635C271.52 104.635 267.901 104.254 264.474 103.492C261.088 102.688 258.105 101.334 255.523 99.4297C252.984 97.5254 250.953 94.9863 249.43 91.8125C247.949 88.6387 247.208 84.6608 247.208 79.8789C247.208 75.1393 247.822 71.1403 249.049 67.8818C250.318 64.5811 252.138 61.915 254.508 59.8838C256.92 57.8525 259.861 56.3926 263.331 55.5039C266.843 54.5729 270.842 54.1074 275.328 54.1074C279.814 54.1074 283.665 54.3825 286.881 54.9326C290.097 55.4404 292.805 56.0964 295.006 56.9004C297.249 57.7044 299.068 58.5931 300.465 59.5664C301.904 60.4974 303.046 61.3649 303.893 62.1689V37.7939C303.893 37.2438 303.893 36.6937 303.893 36.1436C303.935 35.5934 304.041 35.1068 304.21 34.6836C304.379 34.2604 304.612 33.9219 304.908 33.668C305.247 33.4141 305.733 33.2871 306.368 33.2871C307.003 33.2871 307.49 33.4141 307.828 33.668C308.167 33.8796 308.421 34.1758 308.59 34.5566C308.759 34.9375 308.865 35.403 308.907 35.9531C308.95 36.4609 308.971 37.0322 308.971 37.667V100.572C308.971 101.926 308.696 102.836 308.146 103.302C307.638 103.767 307.088 104 306.495 104C305.776 104 305.162 103.788 304.654 103.365C304.146 102.942 303.893 102.053 303.893 100.699V91.876C303.427 93.6956 302.602 95.2826 301.417 96.6367C300.232 97.9486 298.814 99.07 297.164 100.001C295.556 100.932 293.779 101.715 291.832 102.35C289.885 102.942 287.918 103.408 285.929 103.746C283.982 104.085 282.078 104.317 280.216 104.444C278.396 104.571 276.767 104.635 275.328 104.635ZM275.328 100.89C277.867 100.847 280.639 100.657 283.644 100.318C286.648 99.9375 289.526 99.2816 292.276 98.3506C295.027 97.4196 297.46 96.1289 299.576 94.4785C301.692 92.8281 303.131 90.6699 303.893 88.0039V65.1523C302.919 64.3906 301.671 63.5866 300.147 62.7402C298.666 61.8939 296.783 61.111 294.498 60.3916C292.255 59.6299 289.547 59.0163 286.373 58.5508C283.242 58.0853 279.56 57.8525 275.328 57.8525C271.266 57.8525 267.774 58.2757 264.854 59.1221C261.977 59.9684 259.586 61.3014 257.682 63.1211C255.82 64.8984 254.444 67.1836 253.556 69.9766C252.709 72.7272 252.286 76.028 252.286 79.8789C252.286 83.8991 252.879 87.2633 254.063 89.9717C255.291 92.6377 256.941 94.7747 259.015 96.3828C261.088 97.9909 263.521 99.1546 266.314 99.874C269.15 100.551 272.154 100.89 275.328 100.89ZM334.361 99.5566C334.361 100.784 334.213 101.842 333.917 102.73C333.621 103.577 332.944 104 331.886 104C331.251 104 330.764 103.894 330.426 103.683C330.087 103.429 329.833 103.111 329.664 102.73C329.495 102.307 329.389 101.842 329.347 101.334C329.304 100.826 329.283 100.276 329.283 99.6836V37.8574C329.283 37.2227 329.304 36.6302 329.347 36.0801C329.389 35.5299 329.495 35.0645 329.664 34.6836C329.876 34.2604 330.151 33.9219 330.489 33.668C330.87 33.4141 331.378 33.2871 332.013 33.2871C332.521 33.2871 332.923 33.4141 333.219 33.668C333.557 33.9219 333.811 34.2604 333.98 34.6836C334.15 35.1068 334.256 35.5934 334.298 36.1436C334.34 36.6514 334.361 37.1803 334.361 37.7305V99.5566ZM382.604 57.8525C378.668 57.8525 375.177 58.1911 372.13 58.8682C369.083 59.5452 366.48 60.6455 364.322 62.1689C362.206 63.6501 360.556 65.5755 359.371 67.9453C358.186 70.3151 357.509 73.2139 357.34 76.6416H405.201V73.2139C405.201 71.098 404.799 69.109 403.995 67.2471C403.233 65.3851 401.964 63.7559 400.187 62.3594C398.409 60.9629 396.082 59.8626 393.204 59.0586C390.326 58.2546 386.793 57.8525 382.604 57.8525ZM379.303 100.89C383.323 100.89 386.835 100.636 389.84 100.128C392.844 99.6201 395.426 99.0065 397.584 98.2871C399.742 97.5677 401.498 96.8271 402.853 96.0654C404.249 95.3037 405.328 94.6689 406.09 94.1611C406.344 94.0765 406.513 94.0342 406.598 94.0342C407.063 94.0342 407.486 94.2669 407.867 94.7324C408.29 95.1556 408.502 95.6211 408.502 96.1289C408.502 96.5944 408.29 96.9753 407.867 97.2715C407.486 97.6523 406.661 98.2448 405.392 99.0488C404.164 99.8529 402.387 100.678 400.06 101.524C397.732 102.328 394.854 103.048 391.427 103.683C387.999 104.317 383.937 104.635 379.239 104.635C374.33 104.635 370.162 104.021 366.734 102.794C363.307 101.567 360.514 99.8529 358.355 97.6523C356.197 95.4518 354.632 92.807 353.658 89.7178C352.685 86.6286 352.198 83.2432 352.198 79.5615C352.198 74.6527 352.981 70.569 354.547 67.3105C356.113 64.0521 358.25 61.4495 360.958 59.5029C363.709 57.514 366.925 56.1175 370.606 55.3135C374.33 54.5094 378.329 54.1074 382.604 54.1074C391.406 54.1074 397.986 55.8001 402.345 59.1855C406.746 62.5286 408.946 67.3317 408.946 73.5947C408.946 74.1872 408.904 74.8431 408.819 75.5625C408.735 76.2819 408.608 76.9801 408.438 77.6572C408.312 78.292 408.142 78.8421 407.931 79.3076C407.761 79.7308 407.592 79.9424 407.423 79.9424H388.761L357.276 79.3076C357.361 83.2432 357.869 86.5863 358.8 89.3369C359.773 92.0452 361.17 94.2669 362.989 96.002C364.851 97.6947 367.136 98.943 369.845 99.7471C372.553 100.509 375.706 100.89 379.303 100.89ZM454.332 57.8525C450.396 57.8525 446.905 58.1911 443.858 58.8682C440.812 59.5452 438.209 60.6455 436.051 62.1689C433.935 63.6501 432.285 65.5755 431.1 67.9453C429.915 70.3151 429.238 73.2139 429.068 76.6416H476.93V73.2139C476.93 71.098 476.528 69.109 475.724 67.2471C474.962 65.3851 473.692 63.7559 471.915 62.3594C470.138 60.9629 467.81 59.8626 464.933 59.0586C462.055 58.2546 458.521 57.8525 454.332 57.8525ZM451.031 100.89C455.051 100.89 458.564 100.636 461.568 100.128C464.573 99.6201 467.154 99.0065 469.312 98.2871C471.471 97.5677 473.227 96.8271 474.581 96.0654C475.978 95.3037 477.057 94.6689 477.818 94.1611C478.072 94.0765 478.242 94.0342 478.326 94.0342C478.792 94.0342 479.215 94.2669 479.596 94.7324C480.019 95.1556 480.23 95.6211 480.23 96.1289C480.23 96.5944 480.019 96.9753 479.596 97.2715C479.215 97.6523 478.39 98.2448 477.12 99.0488C475.893 99.8529 474.116 100.678 471.788 101.524C469.461 102.328 466.583 103.048 463.155 103.683C459.728 104.317 455.665 104.635 450.968 104.635C446.059 104.635 441.891 104.021 438.463 102.794C435.035 101.567 432.242 99.8529 430.084 97.6523C427.926 95.4518 426.36 92.807 425.387 89.7178C424.413 86.6286 423.927 83.2432 423.927 79.5615C423.927 74.6527 424.71 70.569 426.275 67.3105C427.841 64.0521 429.978 61.4495 432.687 59.5029C435.437 57.514 438.653 56.1175 442.335 55.3135C446.059 54.5094 450.058 54.1074 454.332 54.1074C463.134 54.1074 469.715 55.8001 474.073 59.1855C478.474 62.5286 480.675 67.3317 480.675 73.5947C480.675 74.1872 480.632 74.8431 480.548 75.5625C480.463 76.2819 480.336 76.9801 480.167 77.6572C480.04 78.292 479.871 78.8421 479.659 79.3076C479.49 79.7308 479.321 79.9424 479.151 79.9424H460.489L429.005 79.3076C429.09 83.2432 429.597 86.5863 430.528 89.3369C431.502 92.0452 432.898 94.2669 434.718 96.002C436.58 97.6947 438.865 98.943 441.573 99.7471C444.282 100.509 447.434 100.89 451.031 100.89ZM562.496 98.2871L598.741 36.4609C599.207 35.6569 599.693 34.9587 600.201 34.3662C600.709 33.7738 601.259 33.4352 601.852 33.3506C602.656 33.3506 603.227 33.6045 603.565 34.1123C603.904 34.6201 604.073 35.1068 604.073 35.5723C604.073 36.0378 603.925 36.5456 603.629 37.0957C603.375 37.6035 603.079 38.1325 602.74 38.6826L565.733 101.778C565.268 102.54 564.739 103.111 564.146 103.492C563.596 103.831 563.025 104 562.433 104C561.163 104 560.084 103.259 559.195 101.778L522.062 38.6826C521.723 38.0902 521.427 37.54 521.173 37.0322C520.961 36.4821 520.855 35.9531 520.855 35.4453C520.855 35.1068 521.025 34.6836 521.363 34.1758C521.702 33.6257 522.231 33.3506 522.95 33.3506C523.67 33.4352 524.262 33.7738 524.728 34.3662C525.235 34.9587 525.722 35.6569 526.188 36.4609L562.496 98.2871ZM629.21 99.5566C629.21 100.107 629.21 100.657 629.21 101.207C629.21 101.715 629.146 102.18 629.02 102.604C628.893 103.027 628.681 103.365 628.385 103.619C628.089 103.873 627.665 104 627.115 104C626.48 104 625.994 103.873 625.655 103.619C625.359 103.365 625.126 103.027 624.957 102.604C624.788 102.18 624.682 101.715 624.64 101.207C624.64 100.657 624.64 100.107 624.64 99.5566V37.7305H614.864C614.441 37.7305 613.997 37.7305 613.531 37.7305C613.066 37.7305 612.621 37.6882 612.198 37.6035C611.817 37.4766 611.5 37.2861 611.246 37.0322C610.992 36.7783 610.865 36.3975 610.865 35.8896C610.865 35.2549 610.992 34.7682 611.246 34.4297C611.542 34.0488 611.881 33.7738 612.262 33.6045C612.685 33.4352 613.108 33.3506 613.531 33.3506C613.997 33.3083 614.399 33.2871 614.737 33.2871H626.988C627.623 33.2871 628.089 33.4352 628.385 33.7314C628.681 33.9854 628.893 34.3239 629.02 34.7471C629.146 35.1702 629.21 35.6569 629.21 36.207C629.21 36.7148 629.21 37.2227 629.21 37.7305V99.5566Z" fill="white"/>
</g>
<defs>
<clipPath id="clip0_412_124">
<rect width="639" height="134" fill="white"/>
</clipPath>
</defs>
</svg>
