<svg width="187" height="131" viewBox="0 0 187 131" fill="none" xmlns="http://www.w3.org/2000/svg">
<g clip-path="url(#clip0_528_292)">
<path fill-rule="evenodd" clip-rule="evenodd" d="M187 0H0V133H187V0ZM151 40.6171C151 38.4823 150.334 36.3891 148.991 34.7298C135.791 18.4244 115.613 8 93 8C71.0296 8 51.3576 17.8405 38.1512 33.3544C36.7164 35.0399 36 37.2065 36 39.42V93.58C36 95.7935 36.7164 97.9601 38.1512 99.6456C51.3577 115.159 71.0296 125 93 125C115.613 125 135.791 114.576 148.991 98.2702C150.334 96.6109 151 94.5178 151 92.3829V40.6171Z" fill="#212529"/>
<mask id="path-2-inside-1_528_292" fill="white">
<path fill-rule="evenodd" clip-rule="evenodd" d="M148.991 34.7298C150.334 36.3891 151 38.4823 151 40.6171V92.3829C151 94.5178 150.334 96.6109 148.991 98.2702C135.791 114.576 115.613 125 93 125C71.0296 125 51.3576 115.159 38.1512 99.6456C36.7164 97.9601 36 95.7935 36 93.58V39.42C36 37.2065 36.7164 35.0399 38.1512 33.3544C51.3576 17.8405 71.0296 8 93 8C115.613 8 135.791 18.4244 148.991 34.7298Z"/>
</mask>
<path d="M38.1512 99.6456L39.6741 98.3492L38.1512 99.6456ZM148.991 98.2702L147.436 97.0118L148.991 98.2702ZM148.991 34.7298L147.436 35.9882L148.991 34.7298ZM149 40.6171V92.3829H153V40.6171H149ZM147.436 97.0118C134.6 112.868 114.984 123 93 123V127C116.242 127 136.982 116.283 150.545 99.5286L147.436 97.0118ZM93 123C71.6404 123 52.5168 113.436 39.6741 98.3492L36.6282 100.942C50.1985 116.883 70.4188 127 93 127V123ZM38 93.58V39.42H34V93.58H38ZM39.6741 34.6508C52.5168 19.5643 71.6404 10 93 10V6C70.4188 6 50.1985 16.1168 36.6282 32.058L39.6741 34.6508ZM93 10C114.984 10 134.6 20.1317 147.436 35.9882L150.545 33.4714C136.982 16.7171 116.242 6 93 6V10ZM38 39.42C38 37.6309 38.5786 35.9377 39.6741 34.6508L36.6282 32.058C34.8542 34.142 34 36.7821 34 39.42H38ZM39.6741 98.3492C38.5786 97.0622 38 95.3691 38 93.58H34C34 96.2179 34.8542 98.8579 36.6282 100.942L39.6741 98.3492ZM149 92.3829C149 94.1083 148.462 95.7446 147.436 97.0118L150.545 99.5286C152.206 97.4772 153 94.9272 153 92.3829H149ZM153 40.6171C153 38.0728 152.206 35.5228 150.545 33.4714L147.436 35.9882C148.462 37.2554 149 38.8917 149 40.6171H153Z" fill="white" mask="url(#path-2-inside-1_528_292)"/>
<path d="M92 14C92 14.5523 92.4477 15 93 15C93.5523 15 94 14.5523 94 14H92ZM92 9V14H94V9H92Z" fill="white"/>
<path d="M66.067 19.5801C66.2051 19.8193 66.5109 19.9012 66.75 19.7631C66.9891 19.6251 67.0711 19.3193 66.933 19.0801L66.067 19.5801ZM63.567 15.25L66.067 19.5801L66.933 19.0801L64.433 14.75L63.567 15.25Z" fill="white"/>
<path d="M78.5842 14.112C78.6556 14.3788 78.9298 14.537 79.1965 14.4656C79.4633 14.3941 79.6216 14.1199 79.5501 13.8532L78.5842 14.112ZM77.517 10.1294L78.5842 14.112L79.5501 13.8532L78.483 9.87059L77.517 10.1294Z" fill="white"/>
<path d="M106.517 13.8532C106.446 14.1199 106.604 14.3941 106.871 14.4656C107.138 14.537 107.412 14.3788 107.483 14.112L106.517 13.8532ZM107.584 9.87059L106.517 13.8532L107.483 14.112L108.55 10.1294L107.584 9.87059Z" fill="white"/>
<path d="M130.749 25.716C130.571 25.9275 130.599 26.2429 130.811 26.4204C131.022 26.5979 131.337 26.5703 131.515 26.3588L130.749 25.716ZM133.399 22.5575L130.749 25.716L131.515 26.3588L134.165 23.2003L133.399 22.5575Z" fill="white"/>
<path d="M54.2673 26.4799C54.4448 26.6914 54.7601 26.719 54.9717 26.5415C55.1832 26.364 55.2108 26.0486 55.0333 25.8371L54.2673 26.4799ZM51.617 23.3214L54.2673 26.4799L55.0333 25.8371L52.383 22.6786L51.617 23.3214Z" fill="white"/>
<path d="M119.067 19.0801C118.929 19.3193 119.011 19.6251 119.25 19.7631C119.489 19.9012 119.795 19.8193 119.933 19.5801L119.067 19.0801ZM121.567 14.75L119.067 19.0801L119.933 19.5801L122.433 15.25L121.567 14.75Z" fill="white"/>
<path d="M90.8141 4.224C90.8141 3.296 90.9767 2.58133 91.3021 2.08C91.6327 1.57867 92.0887 1.328 92.6701 1.328C93.2514 1.328 93.7047 1.57867 94.0301 2.08C94.3607 2.58133 94.5261 3.296 94.5261 4.224C94.5261 5.152 94.3607 5.86667 94.0301 6.368C93.7047 6.86933 93.2514 7.12 92.6701 7.12C92.0887 7.12 91.6327 6.86933 91.3021 6.368C90.9767 5.86667 90.8141 5.152 90.8141 4.224ZM93.7421 4.224C93.7421 3.92 93.7234 3.632 93.6861 3.36C93.6541 3.088 93.5954 2.85067 93.5101 2.648C93.4301 2.44533 93.3207 2.28533 93.1821 2.168C93.0434 2.04533 92.8727 1.984 92.6701 1.984C92.4674 1.984 92.2967 2.04533 92.1581 2.168C92.0194 2.28533 91.9074 2.44533 91.8221 2.648C91.7421 2.85067 91.6834 3.088 91.6461 3.36C91.6141 3.632 91.5981 3.92 91.5981 4.224C91.5981 4.528 91.6141 4.816 91.6461 5.088C91.6834 5.36 91.7421 5.59733 91.8221 5.8C91.9074 6.00267 92.0194 6.16533 92.1581 6.288C92.2967 6.40533 92.4674 6.464 92.6701 6.464C92.8727 6.464 93.0434 6.40533 93.1821 6.288C93.3207 6.16533 93.4301 6.00267 93.5101 5.8C93.5954 5.59733 93.6541 5.36 93.6861 5.088C93.7234 4.816 93.7421 4.528 93.7421 4.224ZM97.3777 1.904C97.3777 2.07467 97.3457 2.22933 97.2817 2.368C97.223 2.50667 97.143 2.624 97.0417 2.72C96.9404 2.816 96.8204 2.89067 96.6817 2.944C96.5484 2.992 96.407 3.016 96.2577 3.016C96.1084 3.016 95.9644 2.992 95.8257 2.944C95.6924 2.89067 95.575 2.816 95.4737 2.72C95.3724 2.624 95.2897 2.50667 95.2257 2.368C95.167 2.22933 95.1377 2.07467 95.1377 1.904C95.1377 1.73333 95.167 1.57867 95.2257 1.44C95.2897 1.30133 95.3724 1.184 95.4737 1.088C95.575 0.992 95.6924 0.92 95.8257 0.872C95.9644 0.818666 96.1084 0.792 96.2577 0.792C96.407 0.792 96.5484 0.818666 96.6817 0.872C96.8204 0.92 96.9404 0.992 97.0417 1.088C97.143 1.184 97.223 1.30133 97.2817 1.44C97.3457 1.57867 97.3777 1.73333 97.3777 1.904ZM96.8417 1.904C96.8417 1.71733 96.783 1.57067 96.6657 1.464C96.5537 1.352 96.4177 1.296 96.2577 1.296C96.0977 1.296 95.959 1.352 95.8417 1.464C95.7297 1.57067 95.6737 1.71733 95.6737 1.904C95.6737 2.09067 95.7297 2.24 95.8417 2.352C95.959 2.45867 96.0977 2.512 96.2577 2.512C96.4177 2.512 96.5537 2.45867 96.6657 2.352C96.783 2.24 96.8417 2.09067 96.8417 1.904Z" fill="white"/>
<path d="M69.1299 5.256H71.1059V5.952H69.1299V5.256ZM72.0565 3.6C72.3605 3.48267 72.6565 3.33333 72.9445 3.152C73.2325 2.96533 73.4965 2.73333 73.7365 2.456H74.2645V8H73.5205V3.488C73.4565 3.54667 73.3765 3.608 73.2805 3.672C73.1898 3.736 73.0885 3.79733 72.9765 3.856C72.8698 3.91467 72.7552 3.97067 72.6325 4.024C72.5152 4.07733 72.4005 4.12267 72.2885 4.16L72.0565 3.6ZM77.4201 4.592C78.2255 4.624 78.8148 4.8 79.1881 5.12C79.5668 5.44 79.7561 5.87467 79.7561 6.424C79.7561 6.66933 79.7135 6.896 79.6281 7.104C79.5481 7.312 79.4228 7.49067 79.2521 7.64C79.0868 7.78933 78.8761 7.90667 78.6201 7.992C78.3641 8.07733 78.0601 8.12 77.7081 8.12C77.5695 8.12 77.4281 8.10933 77.2841 8.088C77.1401 8.06667 77.0068 8.04 76.8841 8.008C76.7615 7.976 76.6521 7.944 76.5561 7.912C76.4601 7.88 76.3908 7.85333 76.3481 7.832L76.4921 7.184C76.5828 7.22667 76.7295 7.28267 76.9321 7.352C77.1401 7.42133 77.3935 7.456 77.6921 7.456C77.9321 7.456 78.1321 7.42933 78.2921 7.376C78.4575 7.32267 78.5908 7.25067 78.6921 7.16C78.7935 7.06933 78.8655 6.96533 78.9081 6.848C78.9561 6.72533 78.9801 6.59733 78.9801 6.464C78.9801 6.26133 78.9455 6.08267 78.8761 5.928C78.8068 5.768 78.6841 5.63467 78.5081 5.528C78.3321 5.42133 78.0975 5.34133 77.8041 5.288C77.5108 5.22933 77.1401 5.2 76.6921 5.2C76.7241 4.93867 76.7481 4.69333 76.7641 4.464C76.7855 4.23467 76.8041 4.01067 76.8201 3.792C76.8361 3.57333 76.8495 3.35733 76.8601 3.144C76.8708 2.92533 76.8815 2.696 76.8921 2.456H79.5641V3.088H77.5401C77.5348 3.168 77.5268 3.27733 77.5161 3.416C77.5055 3.54933 77.4948 3.69067 77.4841 3.84C77.4735 3.984 77.4628 4.12533 77.4521 4.264C77.4415 4.40267 77.4308 4.512 77.4201 4.592ZM82.7918 2.904C82.7918 3.07467 82.7598 3.22933 82.6957 3.368C82.6371 3.50667 82.5571 3.624 82.4557 3.72C82.3544 3.816 82.2344 3.89067 82.0958 3.944C81.9624 3.992 81.8211 4.016 81.6718 4.016C81.5224 4.016 81.3784 3.992 81.2398 3.944C81.1064 3.89067 80.9891 3.816 80.8878 3.72C80.7864 3.624 80.7038 3.50667 80.6398 3.368C80.5811 3.22933 80.5518 3.07467 80.5518 2.904C80.5518 2.73333 80.5811 2.57867 80.6398 2.44C80.7038 2.30133 80.7864 2.184 80.8878 2.088C80.9891 1.992 81.1064 1.92 81.2398 1.872C81.3784 1.81867 81.5224 1.792 81.6718 1.792C81.8211 1.792 81.9624 1.81867 82.0958 1.872C82.2344 1.92 82.3544 1.992 82.4557 2.088C82.5571 2.184 82.6371 2.30133 82.6957 2.44C82.7598 2.57867 82.7918 2.73333 82.7918 2.904ZM82.2558 2.904C82.2558 2.71733 82.1971 2.57067 82.0798 2.464C81.9678 2.352 81.8318 2.296 81.6718 2.296C81.5118 2.296 81.3731 2.352 81.2558 2.464C81.1438 2.57067 81.0878 2.71733 81.0878 2.904C81.0878 3.09067 81.1438 3.24 81.2558 3.352C81.3731 3.45867 81.5118 3.512 81.6718 3.512C81.8318 3.512 81.9678 3.45867 82.0798 3.352C82.1971 3.24 82.2558 3.09067 82.2558 2.904Z" fill="white"/>
<path d="M106.057 3.6C106.361 3.48267 106.657 3.33333 106.945 3.152C107.233 2.96533 107.497 2.73333 107.737 2.456H108.265V8H107.521V3.488C107.457 3.54667 107.377 3.608 107.281 3.672C107.19 3.736 107.089 3.79733 106.977 3.856C106.87 3.91467 106.755 3.97067 106.633 4.024C106.515 4.07733 106.401 4.12267 106.289 4.16L106.057 3.6ZM111.42 4.592C112.225 4.624 112.815 4.8 113.188 5.12C113.567 5.44 113.756 5.87467 113.756 6.424C113.756 6.66933 113.713 6.896 113.628 7.104C113.548 7.312 113.423 7.49067 113.252 7.64C113.087 7.78933 112.876 7.90667 112.62 7.992C112.364 8.07733 112.06 8.12 111.708 8.12C111.569 8.12 111.428 8.10933 111.284 8.088C111.14 8.06667 111.007 8.04 110.884 8.008C110.761 7.976 110.652 7.944 110.556 7.912C110.46 7.88 110.391 7.85333 110.348 7.832L110.492 7.184C110.583 7.22667 110.729 7.28267 110.932 7.352C111.14 7.42133 111.393 7.456 111.692 7.456C111.932 7.456 112.132 7.42933 112.292 7.376C112.457 7.32267 112.591 7.25067 112.692 7.16C112.793 7.06933 112.865 6.96533 112.908 6.848C112.956 6.72533 112.98 6.59733 112.98 6.464C112.98 6.26133 112.945 6.08267 112.876 5.928C112.807 5.768 112.684 5.63467 112.508 5.528C112.332 5.42133 112.097 5.34133 111.804 5.288C111.511 5.22933 111.14 5.2 110.692 5.2C110.724 4.93867 110.748 4.69333 110.764 4.464C110.785 4.23467 110.804 4.01067 110.82 3.792C110.836 3.57333 110.849 3.35733 110.86 3.144C110.871 2.92533 110.881 2.696 110.892 2.456H113.564V3.088H111.54C111.535 3.168 111.527 3.27733 111.516 3.416C111.505 3.54933 111.495 3.69067 111.484 3.84C111.473 3.984 111.463 4.12533 111.452 4.264C111.441 4.40267 111.431 4.512 111.42 4.592ZM116.792 2.904C116.792 3.07467 116.76 3.22933 116.696 3.368C116.637 3.50667 116.557 3.624 116.456 3.72C116.354 3.816 116.234 3.89067 116.096 3.944C115.962 3.992 115.821 4.016 115.672 4.016C115.522 4.016 115.378 3.992 115.24 3.944C115.106 3.89067 114.989 3.816 114.888 3.72C114.786 3.624 114.704 3.50667 114.64 3.368C114.581 3.22933 114.552 3.07467 114.552 2.904C114.552 2.73333 114.581 2.57867 114.64 2.44C114.704 2.30133 114.786 2.184 114.888 2.088C114.989 1.992 115.106 1.92 115.24 1.872C115.378 1.81867 115.522 1.792 115.672 1.792C115.821 1.792 115.962 1.81867 116.096 1.872C116.234 1.92 116.354 1.992 116.456 2.088C116.557 2.184 116.637 2.30133 116.696 2.44C116.76 2.57867 116.792 2.73333 116.792 2.904ZM116.256 2.904C116.256 2.71733 116.197 2.57067 116.08 2.464C115.968 2.352 115.832 2.296 115.672 2.296C115.512 2.296 115.373 2.352 115.256 2.464C115.144 2.57067 115.088 2.71733 115.088 2.904C115.088 3.09067 115.144 3.24 115.256 3.352C115.373 3.45867 115.512 3.512 115.672 3.512C115.832 3.512 115.968 3.45867 116.08 3.352C116.197 3.24 116.256 3.09067 116.256 2.904Z" fill="white"/>
<path d="M125.121 12.456C125.595 12.456 125.934 12.3627 126.137 12.176C126.345 11.9893 126.449 11.7387 126.449 11.424C126.449 11.2213 126.406 11.0507 126.321 10.912C126.235 10.7733 126.123 10.664 125.985 10.584C125.846 10.4987 125.683 10.44 125.497 10.408C125.315 10.3707 125.129 10.352 124.937 10.352H124.745V9.744H125.009C125.142 9.744 125.278 9.73067 125.417 9.704C125.561 9.67733 125.691 9.62933 125.809 9.56C125.926 9.49067 126.022 9.39733 126.097 9.28C126.171 9.15733 126.209 9.00533 126.209 8.824C126.209 8.67467 126.182 8.54667 126.129 8.44C126.075 8.33333 126.003 8.24533 125.913 8.176C125.827 8.10667 125.726 8.05867 125.609 8.032C125.497 8 125.377 7.984 125.249 7.984C124.993 7.984 124.774 8.02133 124.593 8.096C124.417 8.17067 124.267 8.248 124.145 8.328L123.857 7.76C123.921 7.71733 124.001 7.672 124.097 7.624C124.198 7.57067 124.31 7.52267 124.433 7.48C124.555 7.43733 124.686 7.40267 124.825 7.376C124.969 7.344 125.118 7.328 125.273 7.328C125.566 7.328 125.819 7.36533 126.033 7.44C126.246 7.50933 126.422 7.61067 126.561 7.744C126.699 7.872 126.803 8.02667 126.873 8.208C126.942 8.384 126.977 8.576 126.977 8.784C126.977 9.072 126.894 9.32 126.729 9.528C126.563 9.73067 126.363 9.88533 126.129 9.992C126.273 10.0347 126.411 10.096 126.545 10.176C126.678 10.256 126.793 10.3573 126.889 10.48C126.99 10.6027 127.07 10.744 127.129 10.904C127.193 11.064 127.225 11.2427 127.225 11.44C127.225 11.68 127.182 11.904 127.097 12.112C127.017 12.3147 126.889 12.4907 126.713 12.64C126.542 12.7893 126.326 12.9067 126.065 12.992C125.803 13.0773 125.494 13.12 125.137 13.12C124.998 13.12 124.854 13.1093 124.705 13.088C124.561 13.0667 124.425 13.04 124.297 13.008C124.169 12.976 124.057 12.944 123.961 12.912C123.865 12.88 123.795 12.8533 123.753 12.832L123.897 12.184C123.987 12.2267 124.137 12.2827 124.345 12.352C124.558 12.4213 124.817 12.456 125.121 12.456ZM128.228 10.224C128.228 9.296 128.391 8.58133 128.716 8.08C129.047 7.57867 129.503 7.328 130.084 7.328C130.665 7.328 131.119 7.57867 131.444 8.08C131.775 8.58133 131.94 9.296 131.94 10.224C131.94 11.152 131.775 11.8667 131.444 12.368C131.119 12.8693 130.665 13.12 130.084 13.12C129.503 13.12 129.047 12.8693 128.716 12.368C128.391 11.8667 128.228 11.152 128.228 10.224ZM131.156 10.224C131.156 9.92 131.137 9.632 131.1 9.36C131.068 9.088 131.009 8.85067 130.924 8.648C130.844 8.44533 130.735 8.28533 130.596 8.168C130.457 8.04533 130.287 7.984 130.084 7.984C129.881 7.984 129.711 8.04533 129.572 8.168C129.433 8.28533 129.321 8.44533 129.236 8.648C129.156 8.85067 129.097 9.088 129.06 9.36C129.028 9.632 129.012 9.92 129.012 10.224C129.012 10.528 129.028 10.816 129.06 11.088C129.097 11.36 129.156 11.5973 129.236 11.8C129.321 12.0027 129.433 12.1653 129.572 12.288C129.711 12.4053 129.881 12.464 130.084 12.464C130.287 12.464 130.457 12.4053 130.596 12.288C130.735 12.1653 130.844 12.0027 130.924 11.8C131.009 11.5973 131.068 11.36 131.1 11.088C131.137 10.816 131.156 10.528 131.156 10.224ZM134.792 7.904C134.792 8.07467 134.76 8.22933 134.696 8.368C134.637 8.50667 134.557 8.624 134.456 8.72C134.354 8.816 134.234 8.89067 134.096 8.944C133.962 8.992 133.821 9.016 133.672 9.016C133.522 9.016 133.378 8.992 133.24 8.944C133.106 8.89067 132.989 8.816 132.888 8.72C132.786 8.624 132.704 8.50667 132.64 8.368C132.581 8.22933 132.552 8.07467 132.552 7.904C132.552 7.73333 132.581 7.57867 132.64 7.44C132.704 7.30133 132.786 7.184 132.888 7.088C132.989 6.992 133.106 6.92 133.24 6.872C133.378 6.81867 133.522 6.792 133.672 6.792C133.821 6.792 133.962 6.81867 134.096 6.872C134.234 6.92 134.354 6.992 134.456 7.088C134.557 7.184 134.637 7.30133 134.696 7.44C134.76 7.57867 134.792 7.73333 134.792 7.904ZM134.256 7.904C134.256 7.71733 134.197 7.57067 134.08 7.464C133.968 7.352 133.832 7.296 133.672 7.296C133.512 7.296 133.373 7.352 133.256 7.464C133.144 7.57067 133.088 7.71733 133.088 7.904C133.088 8.09067 133.144 8.24 133.256 8.352C133.373 8.45867 133.512 8.512 133.672 8.512C133.832 8.512 133.968 8.45867 134.08 8.352C134.197 8.24 134.256 8.09067 134.256 7.904Z" fill="white"/>
<path d="M135.633 19.08C135.734 18.8453 135.873 18.5733 136.049 18.264C136.225 17.9493 136.422 17.6267 136.641 17.296C136.865 16.9653 137.102 16.64 137.353 16.32C137.609 16 137.865 15.712 138.121 15.456H138.833V18.976H139.489V19.584H138.833V21H138.113V19.584H135.633V19.08ZM138.113 16.336C137.953 16.5067 137.79 16.6987 137.625 16.912C137.465 17.12 137.307 17.3387 137.153 17.568C136.998 17.7973 136.851 18.032 136.713 18.272C136.579 18.512 136.459 18.7467 136.353 18.976H138.113V16.336ZM141.42 17.592C142.225 17.624 142.815 17.8 143.188 18.12C143.567 18.44 143.756 18.8747 143.756 19.424C143.756 19.6693 143.713 19.896 143.628 20.104C143.548 20.312 143.423 20.4907 143.252 20.64C143.087 20.7893 142.876 20.9067 142.62 20.992C142.364 21.0773 142.06 21.12 141.708 21.12C141.569 21.12 141.428 21.1093 141.284 21.088C141.14 21.0667 141.007 21.04 140.884 21.008C140.761 20.976 140.652 20.944 140.556 20.912C140.46 20.88 140.391 20.8533 140.348 20.832L140.492 20.184C140.583 20.2267 140.729 20.2827 140.932 20.352C141.14 20.4213 141.393 20.456 141.692 20.456C141.932 20.456 142.132 20.4293 142.292 20.376C142.457 20.3227 142.591 20.2507 142.692 20.16C142.793 20.0693 142.865 19.9653 142.908 19.848C142.956 19.7253 142.98 19.5973 142.98 19.464C142.98 19.2613 142.945 19.0827 142.876 18.928C142.807 18.768 142.684 18.6347 142.508 18.528C142.332 18.4213 142.097 18.3413 141.804 18.288C141.511 18.2293 141.14 18.2 140.692 18.2C140.724 17.9387 140.748 17.6933 140.764 17.464C140.785 17.2347 140.804 17.0107 140.82 16.792C140.836 16.5733 140.849 16.3573 140.86 16.144C140.871 15.9253 140.881 15.696 140.892 15.456H143.564V16.088H141.54C141.535 16.168 141.527 16.2773 141.516 16.416C141.505 16.5493 141.495 16.6907 141.484 16.84C141.473 16.984 141.463 17.1253 141.452 17.264C141.441 17.4027 141.431 17.512 141.42 17.592ZM146.792 15.904C146.792 16.0747 146.76 16.2293 146.696 16.368C146.637 16.5067 146.557 16.624 146.456 16.72C146.354 16.816 146.234 16.8907 146.096 16.944C145.962 16.992 145.821 17.016 145.672 17.016C145.522 17.016 145.378 16.992 145.24 16.944C145.106 16.8907 144.989 16.816 144.888 16.72C144.786 16.624 144.704 16.5067 144.64 16.368C144.581 16.2293 144.552 16.0747 144.552 15.904C144.552 15.7333 144.581 15.5787 144.64 15.44C144.704 15.3013 144.786 15.184 144.888 15.088C144.989 14.992 145.106 14.92 145.24 14.872C145.378 14.8187 145.522 14.792 145.672 14.792C145.821 14.792 145.962 14.8187 146.096 14.872C146.234 14.92 146.354 14.992 146.456 15.088C146.557 15.184 146.637 15.3013 146.696 15.44C146.76 15.5787 146.792 15.7333 146.792 15.904ZM146.256 15.904C146.256 15.7173 146.197 15.5707 146.08 15.464C145.968 15.352 145.832 15.296 145.672 15.296C145.512 15.296 145.373 15.352 145.256 15.464C145.144 15.5707 145.088 15.7173 145.088 15.904C145.088 16.0907 145.144 16.24 145.256 16.352C145.373 16.4587 145.512 16.512 145.672 16.512C145.832 16.512 145.968 16.4587 146.08 16.352C146.197 16.24 146.256 16.0907 146.256 15.904Z" fill="white"/>
<path d="M39.1299 18.256H41.1059V18.952H39.1299V18.256ZM41.6325 19.08C41.7338 18.8453 41.8725 18.5733 42.0485 18.264C42.2245 17.9493 42.4218 17.6267 42.6405 17.296C42.8645 16.9653 43.1018 16.64 43.3525 16.32C43.6085 16 43.8645 15.712 44.1205 15.456H44.8325V18.976H45.4885V19.584H44.8325V21H44.1125V19.584H41.6325V19.08ZM44.1125 16.336C43.9525 16.5067 43.7898 16.6987 43.6245 16.912C43.4645 17.12 43.3072 17.3387 43.1525 17.568C42.9978 17.7973 42.8512 18.032 42.7125 18.272C42.5792 18.512 42.4592 18.7467 42.3525 18.976H44.1125V16.336ZM47.4201 17.592C48.2255 17.624 48.8148 17.8 49.1881 18.12C49.5668 18.44 49.7561 18.8747 49.7561 19.424C49.7561 19.6693 49.7135 19.896 49.6281 20.104C49.5481 20.312 49.4228 20.4907 49.2521 20.64C49.0868 20.7893 48.8761 20.9067 48.6201 20.992C48.3641 21.0773 48.0601 21.12 47.7081 21.12C47.5695 21.12 47.4281 21.1093 47.2841 21.088C47.1401 21.0667 47.0068 21.04 46.8841 21.008C46.7615 20.976 46.6521 20.944 46.5561 20.912C46.4601 20.88 46.3908 20.8533 46.3481 20.832L46.4921 20.184C46.5828 20.2267 46.7295 20.2827 46.9321 20.352C47.1401 20.4213 47.3935 20.456 47.6921 20.456C47.9321 20.456 48.1321 20.4293 48.2921 20.376C48.4575 20.3227 48.5908 20.2507 48.6921 20.16C48.7935 20.0693 48.8655 19.9653 48.9081 19.848C48.9561 19.7253 48.9801 19.5973 48.9801 19.464C48.9801 19.2613 48.9455 19.0827 48.8761 18.928C48.8068 18.768 48.6841 18.6347 48.5081 18.528C48.3321 18.4213 48.0975 18.3413 47.8041 18.288C47.5108 18.2293 47.1401 18.2 46.6921 18.2C46.7241 17.9387 46.7481 17.6933 46.7641 17.464C46.7855 17.2347 46.8041 17.0107 46.8201 16.792C46.8361 16.5733 46.8495 16.3573 46.8601 16.144C46.8708 15.9253 46.8815 15.696 46.8921 15.456H49.5641V16.088H47.5401C47.5348 16.168 47.5268 16.2773 47.5161 16.416C47.5055 16.5493 47.4948 16.6907 47.4841 16.84C47.4735 16.984 47.4628 17.1253 47.4521 17.264C47.4415 17.4027 47.4308 17.512 47.4201 17.592ZM52.7918 15.904C52.7918 16.0747 52.7598 16.2293 52.6957 16.368C52.6371 16.5067 52.5571 16.624 52.4557 16.72C52.3544 16.816 52.2344 16.8907 52.0958 16.944C51.9624 16.992 51.8211 17.016 51.6718 17.016C51.5224 17.016 51.3784 16.992 51.2398 16.944C51.1064 16.8907 50.9891 16.816 50.8878 16.72C50.7864 16.624 50.7038 16.5067 50.6398 16.368C50.5811 16.2293 50.5518 16.0747 50.5518 15.904C50.5518 15.7333 50.5811 15.5787 50.6398 15.44C50.7038 15.3013 50.7864 15.184 50.8878 15.088C50.9891 14.992 51.1064 14.92 51.2398 14.872C51.3784 14.8187 51.5224 14.792 51.6718 14.792C51.8211 14.792 51.9624 14.8187 52.0958 14.872C52.2344 14.92 52.3544 14.992 52.4557 15.088C52.5571 15.184 52.6371 15.3013 52.6957 15.44C52.7598 15.5787 52.7918 15.7333 52.7918 15.904ZM52.2558 15.904C52.2558 15.7173 52.1971 15.5707 52.0798 15.464C51.9678 15.352 51.8318 15.296 51.6718 15.296C51.5118 15.296 51.3731 15.352 51.2558 15.464C51.1438 15.5707 51.0878 15.7173 51.0878 15.904C51.0878 16.0907 51.1438 16.24 51.2558 16.352C51.3731 16.4587 51.5118 16.512 51.6718 16.512C51.8318 16.512 51.9678 16.4587 52.0798 16.352C52.1971 16.24 52.2558 16.0907 52.2558 15.904Z" fill="white"/>
<path d="M53.1299 10.256H55.1059V10.952H53.1299V10.256ZM57.1205 12.456C57.5952 12.456 57.9338 12.3627 58.1365 12.176C58.3445 11.9893 58.4485 11.7387 58.4485 11.424C58.4485 11.2213 58.4058 11.0507 58.3205 10.912C58.2352 10.7733 58.1232 10.664 57.9845 10.584C57.8458 10.4987 57.6832 10.44 57.4965 10.408C57.3152 10.3707 57.1285 10.352 56.9365 10.352H56.7445V9.744H57.0085C57.1418 9.744 57.2778 9.73067 57.4165 9.704C57.5605 9.67733 57.6912 9.62933 57.8085 9.56C57.9258 9.49067 58.0218 9.39733 58.0965 9.28C58.1712 9.15733 58.2085 9.00533 58.2085 8.824C58.2085 8.67467 58.1818 8.54667 58.1285 8.44C58.0752 8.33333 58.0032 8.24533 57.9125 8.176C57.8272 8.10667 57.7258 8.05867 57.6085 8.032C57.4965 8 57.3765 7.984 57.2485 7.984C56.9925 7.984 56.7738 8.02133 56.5925 8.096C56.4165 8.17067 56.2672 8.248 56.1445 8.328L55.8565 7.76C55.9205 7.71733 56.0005 7.672 56.0965 7.624C56.1978 7.57067 56.3098 7.52267 56.4325 7.48C56.5552 7.43733 56.6858 7.40267 56.8245 7.376C56.9685 7.344 57.1178 7.328 57.2725 7.328C57.5658 7.328 57.8192 7.36533 58.0325 7.44C58.2458 7.50933 58.4218 7.61067 58.5605 7.744C58.6992 7.872 58.8032 8.02667 58.8725 8.208C58.9418 8.384 58.9765 8.576 58.9765 8.784C58.9765 9.072 58.8938 9.32 58.7285 9.528C58.5632 9.73067 58.3632 9.88533 58.1285 9.992C58.2725 10.0347 58.4112 10.096 58.5445 10.176C58.6778 10.256 58.7925 10.3573 58.8885 10.48C58.9898 10.6027 59.0698 10.744 59.1285 10.904C59.1925 11.064 59.2245 11.2427 59.2245 11.44C59.2245 11.68 59.1818 11.904 59.0965 12.112C59.0165 12.3147 58.8885 12.4907 58.7125 12.64C58.5418 12.7893 58.3258 12.9067 58.0645 12.992C57.8032 13.0773 57.4938 13.12 57.1365 13.12C56.9978 13.12 56.8538 13.1093 56.7045 13.088C56.5605 13.0667 56.4245 13.04 56.2965 13.008C56.1685 12.976 56.0565 12.944 55.9605 12.912C55.8645 12.88 55.7952 12.8533 55.7525 12.832L55.8965 12.184C55.9872 12.2267 56.1365 12.2827 56.3445 12.352C56.5578 12.4213 56.8165 12.456 57.1205 12.456ZM60.2281 10.224C60.2281 9.296 60.3908 8.58133 60.7161 8.08C61.0468 7.57867 61.5028 7.328 62.0841 7.328C62.6655 7.328 63.1188 7.57867 63.4441 8.08C63.7748 8.58133 63.9401 9.296 63.9401 10.224C63.9401 11.152 63.7748 11.8667 63.4441 12.368C63.1188 12.8693 62.6655 13.12 62.0841 13.12C61.5028 13.12 61.0468 12.8693 60.7161 12.368C60.3908 11.8667 60.2281 11.152 60.2281 10.224ZM63.1561 10.224C63.1561 9.92 63.1375 9.632 63.1001 9.36C63.0681 9.088 63.0095 8.85067 62.9241 8.648C62.8441 8.44533 62.7348 8.28533 62.5961 8.168C62.4575 8.04533 62.2868 7.984 62.0841 7.984C61.8815 7.984 61.7108 8.04533 61.5721 8.168C61.4335 8.28533 61.3215 8.44533 61.2361 8.648C61.1561 8.85067 61.0975 9.088 61.0601 9.36C61.0281 9.632 61.0121 9.92 61.0121 10.224C61.0121 10.528 61.0281 10.816 61.0601 11.088C61.0975 11.36 61.1561 11.5973 61.2361 11.8C61.3215 12.0027 61.4335 12.1653 61.5721 12.288C61.7108 12.4053 61.8815 12.464 62.0841 12.464C62.2868 12.464 62.4575 12.4053 62.5961 12.288C62.7348 12.1653 62.8441 12.0027 62.9241 11.8C63.0095 11.5973 63.0681 11.36 63.1001 11.088C63.1375 10.816 63.1561 10.528 63.1561 10.224ZM66.7918 7.904C66.7918 8.07467 66.7598 8.22933 66.6957 8.368C66.6371 8.50667 66.5571 8.624 66.4557 8.72C66.3544 8.816 66.2344 8.89067 66.0958 8.944C65.9624 8.992 65.8211 9.016 65.6718 9.016C65.5224 9.016 65.3784 8.992 65.2398 8.944C65.1064 8.89067 64.9891 8.816 64.8878 8.72C64.7864 8.624 64.7038 8.50667 64.6398 8.368C64.5811 8.22933 64.5518 8.07467 64.5518 7.904C64.5518 7.73333 64.5811 7.57867 64.6398 7.44C64.7038 7.30133 64.7864 7.184 64.8878 7.088C64.9891 6.992 65.1064 6.92 65.2398 6.872C65.3784 6.81867 65.5224 6.792 65.6718 6.792C65.8211 6.792 65.9624 6.81867 66.0958 6.872C66.2344 6.92 66.3544 6.992 66.4557 7.088C66.5571 7.184 66.6371 7.30133 66.6957 7.44C66.7598 7.57867 66.7918 7.73333 66.7918 7.904ZM66.2558 7.904C66.2558 7.71733 66.1971 7.57067 66.0798 7.464C65.9678 7.352 65.8318 7.296 65.6718 7.296C65.5118 7.296 65.3731 7.352 65.2558 7.464C65.1438 7.57067 65.0878 7.71733 65.0878 7.904C65.0878 8.09067 65.1438 8.24 65.2558 8.352C65.3731 8.45867 65.5118 8.512 65.6718 8.512C65.8318 8.512 65.9678 8.45867 66.0798 8.352C66.1971 8.24 66.2558 8.09067 66.2558 7.904Z" fill="white"/>
<mask id="path-18-inside-2_528_292" fill="white">
<path fill-rule="evenodd" clip-rule="evenodd" d="M93 66C93.5523 66 94 65.5523 94 65C94 64.4477 93.5523 64 93 64C92.4477 64 92 64.4477 92 65C92 65.5523 92.4477 66 93 66ZM82 65H60V67.5H82.2852C83.417 72.3711 87.7852 76 93 76C98.2148 76 102.583 72.3711 103.715 67.5H126V65H104H102H101.5C101.5 69.6953 97.6943 73.5 93 73.5C88.3057 73.5 84.5 69.6953 84.5 65H84H82Z"/>
</mask>
<path fill-rule="evenodd" clip-rule="evenodd" d="M93 66C93.5523 66 94 65.5523 94 65C94 64.4477 93.5523 64 93 64C92.4477 64 92 64.4477 92 65C92 65.5523 92.4477 66 93 66ZM82 65H60V67.5H82.2852C83.417 72.3711 87.7852 76 93 76C98.2148 76 102.583 72.3711 103.715 67.5H126V65H104H102H101.5C101.5 69.6953 97.6943 73.5 93 73.5C88.3057 73.5 84.5 69.6953 84.5 65H84H82Z" fill="white"/>
<path d="M60 65V64.3H59.3V65H60ZM60 67.5H59.3V68.2H60V67.5ZM82.2852 67.5L82.967 67.3416L82.8412 66.8H82.2852V67.5ZM103.715 67.5V66.8H103.159L103.033 67.3416L103.715 67.5ZM126 67.5V68.2H126.7V67.5H126ZM126 65H126.7V64.3H126V65ZM101.5 65V64.3H100.8V65H101.5ZM84.5 65H85.2V64.3H84.5V65ZM93.3 65C93.3 65.1657 93.1657 65.3 93 65.3V66.7C93.9389 66.7 94.7 65.9389 94.7 65H93.3ZM93 64.7C93.1657 64.7 93.3 64.8343 93.3 65H94.7C94.7 64.0611 93.9389 63.3 93 63.3V64.7ZM92.7 65C92.7 64.8343 92.8343 64.7 93 64.7V63.3C92.0611 63.3 91.3 64.0611 91.3 65H92.7ZM93 65.3C92.8343 65.3 92.7 65.1657 92.7 65H91.3C91.3 65.9389 92.0611 66.7 93 66.7V65.3ZM60 65.7H82V64.3H60V65.7ZM60.7 67.5V65H59.3V67.5H60.7ZM82.2852 66.8H60V68.2H82.2852V66.8ZM93 75.3C88.1179 75.3 84.0268 71.9026 82.967 67.3416L81.6033 67.6584C82.8072 72.8396 87.4524 76.7 93 76.7V75.3ZM103.033 67.3416C101.973 71.9026 97.8821 75.3 93 75.3V76.7C98.5476 76.7 103.193 72.8396 104.397 67.6584L103.033 67.3416ZM126 66.8H103.715V68.2H126V66.8ZM125.3 65V67.5H126.7V65H125.3ZM104 65.7H126V64.3H104V65.7ZM102 65.7H104V64.3H102V65.7ZM101.5 65.7H102V64.3H101.5V65.7ZM93 74.2C98.0809 74.2 102.2 70.082 102.2 65H100.8C100.8 69.3087 97.3078 72.8 93 72.8V74.2ZM83.8 65C83.8 70.082 87.9191 74.2 93 74.2V72.8C88.6922 72.8 85.2 69.3087 85.2 65H83.8ZM84 65.7H84.5V64.3H84V65.7ZM82 65.7H84V64.3H82V65.7Z" fill="black" mask="url(#path-18-inside-2_528_292)"/>
</g>
<defs>
<clipPath id="clip0_528_292">
<rect width="187" height="131" fill="white"/>
</clipPath>
</defs>
</svg>
