<svg width="226" height="220" viewBox="0 0 226 220" fill="none" xmlns="http://www.w3.org/2000/svg">
<g clip-path="url(#clip0_528_293)">
<rect width="226" height="220" fill="white"/>
<rect width="226" height="110" fill="#6883DB"/>
<rect y="110" width="226" height="110" fill="#937676"/>
<rect width="226" height="0.5" transform="matrix(1 0 0 -1 0 110.5)" fill="white" fill-opacity="0.5"/>
<rect width="30" height="1" transform="matrix(-1 -1.49678e-07 -6.17423e-08 1 128 78)" fill="white"/>
<path d="M88.1288 74.356C88.1288 74.572 88.0838 74.782 87.9938 74.986C87.9098 75.184 87.7958 75.382 87.6518 75.58C87.5078 75.772 87.3458 75.964 87.1658 76.156C86.9858 76.342 86.8058 76.525 86.6258 76.705C86.5238 76.807 86.4038 76.927 86.2658 77.065C86.1338 77.203 86.0078 77.347 85.8878 77.497C85.7678 77.647 85.6658 77.791 85.5818 77.929C85.5038 78.067 85.4648 78.187 85.4648 78.289H88.3358V79H84.5558C84.5498 78.964 84.5468 78.928 84.5468 78.892C84.5468 78.856 84.5468 78.823 84.5468 78.793C84.5468 78.511 84.5918 78.25 84.6818 78.01C84.7778 77.764 84.9008 77.533 85.0508 77.317C85.2008 77.101 85.3688 76.897 85.5548 76.705C85.7408 76.513 85.9238 76.327 86.1038 76.147C86.2538 76.003 86.3948 75.862 86.5268 75.724C86.6648 75.58 86.7848 75.439 86.8868 75.301C86.9948 75.157 87.0788 75.01 87.1388 74.86C87.2048 74.71 87.2378 74.551 87.2378 74.383C87.2378 74.203 87.2078 74.05 87.1478 73.924C87.0938 73.798 87.0188 73.693 86.9228 73.609C86.8268 73.525 86.7128 73.465 86.5808 73.429C86.4548 73.387 86.3198 73.366 86.1758 73.366C86.0018 73.366 85.8428 73.39 85.6988 73.438C85.5548 73.486 85.4258 73.543 85.3118 73.609C85.1978 73.669 85.1018 73.735 85.0238 73.807C84.9458 73.873 84.8858 73.924 84.8438 73.96L84.4298 73.366C84.4838 73.306 84.5648 73.234 84.6728 73.15C84.7808 73.06 84.9098 72.976 85.0598 72.898C85.2098 72.82 85.3778 72.754 85.5638 72.7C85.7498 72.646 85.9508 72.619 86.1668 72.619C86.8208 72.619 87.3098 72.772 87.6338 73.078C87.9638 73.378 88.1288 73.804 88.1288 74.356ZM89.4559 75.877C89.4559 74.833 89.6389 74.029 90.0049 73.465C90.3769 72.901 90.8899 72.619 91.5439 72.619C92.1979 72.619 92.7079 72.901 93.0739 73.465C93.4459 74.029 93.6319 74.833 93.6319 75.877C93.6319 76.921 93.4459 77.725 93.0739 78.289C92.7079 78.853 92.1979 79.135 91.5439 79.135C90.8899 79.135 90.3769 78.853 90.0049 78.289C89.6389 77.725 89.4559 76.921 89.4559 75.877ZM92.7499 75.877C92.7499 75.535 92.7289 75.211 92.6869 74.905C92.6509 74.599 92.5849 74.332 92.4889 74.104C92.3989 73.876 92.2759 73.696 92.1199 73.564C91.9639 73.426 91.7719 73.357 91.5439 73.357C91.3159 73.357 91.1239 73.426 90.9679 73.564C90.8119 73.696 90.6859 73.876 90.5899 74.104C90.4999 74.332 90.4339 74.599 90.3919 74.905C90.3559 75.211 90.3379 75.535 90.3379 75.877C90.3379 76.219 90.3559 76.543 90.3919 76.849C90.4339 77.155 90.4999 77.422 90.5899 77.65C90.6859 77.878 90.8119 78.061 90.9679 78.199C91.1239 78.331 91.3159 78.397 91.5439 78.397C91.7719 78.397 91.9639 78.331 92.1199 78.199C92.2759 78.061 92.3989 77.878 92.4889 77.65C92.5849 77.422 92.6509 77.155 92.6869 76.849C92.7289 76.543 92.7499 76.219 92.7499 75.877ZM96.8399 73.267C96.8399 73.459 96.8039 73.633 96.7319 73.789C96.6659 73.945 96.5759 74.077 96.4619 74.185C96.3479 74.293 96.2129 74.377 96.0569 74.437C95.9069 74.491 95.7479 74.518 95.5799 74.518C95.4119 74.518 95.2499 74.491 95.0939 74.437C94.9439 74.377 94.8119 74.293 94.6979 74.185C94.5839 74.077 94.4909 73.945 94.4189 73.789C94.3529 73.633 94.3199 73.459 94.3199 73.267C94.3199 73.075 94.3529 72.901 94.4189 72.745C94.4909 72.589 94.5839 72.457 94.6979 72.349C94.8119 72.241 94.9439 72.16 95.0939 72.106C95.2499 72.046 95.4119 72.016 95.5799 72.016C95.7479 72.016 95.9069 72.046 96.0569 72.106C96.2129 72.16 96.3479 72.241 96.4619 72.349C96.5759 72.457 96.6659 72.589 96.7319 72.745C96.8039 72.901 96.8399 73.075 96.8399 73.267ZM96.2369 73.267C96.2369 73.057 96.1709 72.892 96.0389 72.772C95.9129 72.646 95.7599 72.583 95.5799 72.583C95.3999 72.583 95.2439 72.646 95.1119 72.772C94.9859 72.892 94.9229 73.057 94.9229 73.267C94.9229 73.477 94.9859 73.645 95.1119 73.771C95.2439 73.891 95.3999 73.951 95.5799 73.951C95.7599 73.951 95.9129 73.891 96.0389 73.771C96.1709 73.645 96.2369 73.477 96.2369 73.267Z" fill="white" fill-opacity="0.7"/>
<rect width="30" height="1" transform="matrix(-1 -1.49678e-07 -6.17423e-08 1 128 95)" fill="white"/>
<path d="M84.7628 91.05C85.1048 90.918 85.4378 90.75 85.7618 90.546C86.0858 90.336 86.3828 90.075 86.6528 89.763H87.2468V96H86.4098V90.924C86.3378 90.99 86.2478 91.059 86.1398 91.131C86.0378 91.203 85.9238 91.272 85.7978 91.338C85.6778 91.404 85.5488 91.467 85.4108 91.527C85.2788 91.587 85.1498 91.638 85.0238 91.68L84.7628 91.05ZM89.4559 92.877C89.4559 91.833 89.6389 91.029 90.0049 90.465C90.3769 89.901 90.8899 89.619 91.5439 89.619C92.1979 89.619 92.7079 89.901 93.0739 90.465C93.4459 91.029 93.6319 91.833 93.6319 92.877C93.6319 93.921 93.4459 94.725 93.0739 95.289C92.7079 95.853 92.1979 96.135 91.5439 96.135C90.8899 96.135 90.3769 95.853 90.0049 95.289C89.6389 94.725 89.4559 93.921 89.4559 92.877ZM92.7499 92.877C92.7499 92.535 92.7289 92.211 92.6869 91.905C92.6509 91.599 92.5849 91.332 92.4889 91.104C92.3989 90.876 92.2759 90.696 92.1199 90.564C91.9639 90.426 91.7719 90.357 91.5439 90.357C91.3159 90.357 91.1239 90.426 90.9679 90.564C90.8119 90.696 90.6859 90.876 90.5899 91.104C90.4999 91.332 90.4339 91.599 90.3919 91.905C90.3559 92.211 90.3379 92.535 90.3379 92.877C90.3379 93.219 90.3559 93.543 90.3919 93.849C90.4339 94.155 90.4999 94.422 90.5899 94.65C90.6859 94.878 90.8119 95.061 90.9679 95.199C91.1239 95.331 91.3159 95.397 91.5439 95.397C91.7719 95.397 91.9639 95.331 92.1199 95.199C92.2759 95.061 92.3989 94.878 92.4889 94.65C92.5849 94.422 92.6509 94.155 92.6869 93.849C92.7289 93.543 92.7499 93.219 92.7499 92.877ZM96.8399 90.267C96.8399 90.459 96.8039 90.633 96.7319 90.789C96.6659 90.945 96.5759 91.077 96.4619 91.185C96.3479 91.293 96.2129 91.377 96.0569 91.437C95.9069 91.491 95.7479 91.518 95.5799 91.518C95.4119 91.518 95.2499 91.491 95.0939 91.437C94.9439 91.377 94.8119 91.293 94.6979 91.185C94.5839 91.077 94.4909 90.945 94.4189 90.789C94.3529 90.633 94.3199 90.459 94.3199 90.267C94.3199 90.075 94.3529 89.901 94.4189 89.745C94.4909 89.589 94.5839 89.457 94.6979 89.349C94.8119 89.241 94.9439 89.16 95.0939 89.106C95.2499 89.046 95.4119 89.016 95.5799 89.016C95.7479 89.016 95.9069 89.046 96.0569 89.106C96.2129 89.16 96.3479 89.241 96.4619 89.349C96.5759 89.457 96.6659 89.589 96.7319 89.745C96.8039 89.901 96.8399 90.075 96.8399 90.267ZM96.2369 90.267C96.2369 90.057 96.1709 89.892 96.0389 89.772C95.9129 89.646 95.7599 89.583 95.5799 89.583C95.3999 89.583 95.2439 89.646 95.1119 89.772C94.9859 89.892 94.9229 90.057 94.9229 90.267C94.9229 90.477 94.9859 90.645 95.1119 90.771C95.2439 90.891 95.3999 90.951 95.5799 90.951C95.7599 90.951 95.9129 90.891 96.0389 90.771C96.1709 90.645 96.2369 90.477 96.2369 90.267Z" fill="white" fill-opacity="0.7"/>
<rect width="10" height="0.5" transform="matrix(-1 -1.49678e-07 -6.17423e-08 1 118 86)" fill="white" fill-opacity="0.5"/>
<rect width="10" height="0.5" transform="matrix(-1 -1.49678e-07 -6.17423e-08 1 118 70)" fill="white" fill-opacity="0.5"/>
<rect width="10" height="0.5" transform="matrix(-1 -1.49678e-07 -6.17423e-08 1 118 103)" fill="white" fill-opacity="0.5"/>
<rect width="30" height="1" transform="matrix(-1 -1.49678e-07 -6.17423e-08 1 128 125)" fill="white"/>
<path d="M81.6149 122.913H83.8379V123.696H81.6149V122.913ZM88.2733 121.356C88.2733 121.572 88.2283 121.782 88.1383 121.986C88.0543 122.184 87.9403 122.382 87.7963 122.58C87.6523 122.772 87.4903 122.964 87.3103 123.156C87.1303 123.342 86.9503 123.525 86.7703 123.705C86.6683 123.807 86.5483 123.927 86.4103 124.065C86.2783 124.203 86.1523 124.347 86.0323 124.497C85.9123 124.647 85.8103 124.791 85.7263 124.929C85.6483 125.067 85.6093 125.187 85.6093 125.289H88.4803V126H84.7003C84.6943 125.964 84.6913 125.928 84.6913 125.892C84.6913 125.856 84.6913 125.823 84.6913 125.793C84.6913 125.511 84.7363 125.25 84.8263 125.01C84.9223 124.764 85.0453 124.533 85.1953 124.317C85.3453 124.101 85.5133 123.897 85.6993 123.705C85.8853 123.513 86.0683 123.327 86.2483 123.147C86.3983 123.003 86.5393 122.862 86.6713 122.724C86.8093 122.58 86.9293 122.439 87.0313 122.301C87.1393 122.157 87.2233 122.01 87.2833 121.86C87.3493 121.71 87.3823 121.551 87.3823 121.383C87.3823 121.203 87.3523 121.05 87.2923 120.924C87.2383 120.798 87.1633 120.693 87.0673 120.609C86.9713 120.525 86.8573 120.465 86.7253 120.429C86.5993 120.387 86.4643 120.366 86.3203 120.366C86.1463 120.366 85.9873 120.39 85.8433 120.438C85.6993 120.486 85.5703 120.543 85.4563 120.609C85.3423 120.669 85.2463 120.735 85.1683 120.807C85.0903 120.873 85.0303 120.924 84.9883 120.96L84.5743 120.366C84.6283 120.306 84.7093 120.234 84.8173 120.15C84.9253 120.06 85.0543 119.976 85.2043 119.898C85.3543 119.82 85.5223 119.754 85.7083 119.7C85.8943 119.646 86.0953 119.619 86.3113 119.619C86.9653 119.619 87.4543 119.772 87.7783 120.078C88.1083 120.378 88.2733 120.804 88.2733 121.356ZM89.6004 122.877C89.6004 121.833 89.7834 121.029 90.1494 120.465C90.5214 119.901 91.0344 119.619 91.6884 119.619C92.3424 119.619 92.8524 119.901 93.2184 120.465C93.5904 121.029 93.7764 121.833 93.7764 122.877C93.7764 123.921 93.5904 124.725 93.2184 125.289C92.8524 125.853 92.3424 126.135 91.6884 126.135C91.0344 126.135 90.5214 125.853 90.1494 125.289C89.7834 124.725 89.6004 123.921 89.6004 122.877ZM92.8944 122.877C92.8944 122.535 92.8734 122.211 92.8314 121.905C92.7954 121.599 92.7294 121.332 92.6334 121.104C92.5434 120.876 92.4204 120.696 92.2644 120.564C92.1084 120.426 91.9164 120.357 91.6884 120.357C91.4604 120.357 91.2684 120.426 91.1124 120.564C90.9564 120.696 90.8304 120.876 90.7344 121.104C90.6444 121.332 90.5784 121.599 90.5364 121.905C90.5004 122.211 90.4824 122.535 90.4824 122.877C90.4824 123.219 90.5004 123.543 90.5364 123.849C90.5784 124.155 90.6444 124.422 90.7344 124.65C90.8304 124.878 90.9564 125.061 91.1124 125.199C91.2684 125.331 91.4604 125.397 91.6884 125.397C91.9164 125.397 92.1084 125.331 92.2644 125.199C92.4204 125.061 92.5434 124.878 92.6334 124.65C92.7294 124.422 92.7954 124.155 92.8314 123.849C92.8734 123.543 92.8944 123.219 92.8944 122.877ZM96.9845 120.267C96.9845 120.459 96.9485 120.633 96.8765 120.789C96.8105 120.945 96.7205 121.077 96.6065 121.185C96.4925 121.293 96.3575 121.377 96.2015 121.437C96.0515 121.491 95.8925 121.518 95.7245 121.518C95.5565 121.518 95.3945 121.491 95.2385 121.437C95.0885 121.377 94.9565 121.293 94.8425 121.185C94.7285 121.077 94.6355 120.945 94.5635 120.789C94.4975 120.633 94.4645 120.459 94.4645 120.267C94.4645 120.075 94.4975 119.901 94.5635 119.745C94.6355 119.589 94.7285 119.457 94.8425 119.349C94.9565 119.241 95.0885 119.16 95.2385 119.106C95.3945 119.046 95.5565 119.016 95.7245 119.016C95.8925 119.016 96.0515 119.046 96.2015 119.106C96.3575 119.16 96.4925 119.241 96.6065 119.349C96.7205 119.457 96.8105 119.589 96.8765 119.745C96.9485 119.901 96.9845 120.075 96.9845 120.267ZM96.3815 120.267C96.3815 120.057 96.3155 119.892 96.1835 119.772C96.0575 119.646 95.9045 119.583 95.7245 119.583C95.5445 119.583 95.3885 119.646 95.2565 119.772C95.1305 119.892 95.0675 120.057 95.0675 120.267C95.0675 120.477 95.1305 120.645 95.2565 120.771C95.3885 120.891 95.5445 120.951 95.7245 120.951C95.9045 120.951 96.0575 120.891 96.1835 120.771C96.3155 120.645 96.3815 120.477 96.3815 120.267Z" fill="white" fill-opacity="0.7"/>
<rect width="30" height="1" transform="matrix(-1 -1.49678e-07 -6.17423e-08 1 128 142)" fill="white"/>
<path d="M81.6149 139.913H83.8379V140.696H81.6149V139.913ZM84.9073 138.05C85.2493 137.918 85.5823 137.75 85.9063 137.546C86.2303 137.336 86.5273 137.075 86.7973 136.763H87.3913V143H86.5543V137.924C86.4823 137.99 86.3923 138.059 86.2843 138.131C86.1823 138.203 86.0683 138.272 85.9423 138.338C85.8223 138.404 85.6933 138.467 85.5553 138.527C85.4233 138.587 85.2943 138.638 85.1683 138.68L84.9073 138.05ZM89.6004 139.877C89.6004 138.833 89.7834 138.029 90.1494 137.465C90.5214 136.901 91.0344 136.619 91.6884 136.619C92.3424 136.619 92.8524 136.901 93.2184 137.465C93.5904 138.029 93.7764 138.833 93.7764 139.877C93.7764 140.921 93.5904 141.725 93.2184 142.289C92.8524 142.853 92.3424 143.135 91.6884 143.135C91.0344 143.135 90.5214 142.853 90.1494 142.289C89.7834 141.725 89.6004 140.921 89.6004 139.877ZM92.8944 139.877C92.8944 139.535 92.8734 139.211 92.8314 138.905C92.7954 138.599 92.7294 138.332 92.6334 138.104C92.5434 137.876 92.4204 137.696 92.2644 137.564C92.1084 137.426 91.9164 137.357 91.6884 137.357C91.4604 137.357 91.2684 137.426 91.1124 137.564C90.9564 137.696 90.8304 137.876 90.7344 138.104C90.6444 138.332 90.5784 138.599 90.5364 138.905C90.5004 139.211 90.4824 139.535 90.4824 139.877C90.4824 140.219 90.5004 140.543 90.5364 140.849C90.5784 141.155 90.6444 141.422 90.7344 141.65C90.8304 141.878 90.9564 142.061 91.1124 142.199C91.2684 142.331 91.4604 142.397 91.6884 142.397C91.9164 142.397 92.1084 142.331 92.2644 142.199C92.4204 142.061 92.5434 141.878 92.6334 141.65C92.7294 141.422 92.7954 141.155 92.8314 140.849C92.8734 140.543 92.8944 140.219 92.8944 139.877ZM96.9845 137.267C96.9845 137.459 96.9485 137.633 96.8765 137.789C96.8105 137.945 96.7205 138.077 96.6065 138.185C96.4925 138.293 96.3575 138.377 96.2015 138.437C96.0515 138.491 95.8925 138.518 95.7245 138.518C95.5565 138.518 95.3945 138.491 95.2385 138.437C95.0885 138.377 94.9565 138.293 94.8425 138.185C94.7285 138.077 94.6355 137.945 94.5635 137.789C94.4975 137.633 94.4645 137.459 94.4645 137.267C94.4645 137.075 94.4975 136.901 94.5635 136.745C94.6355 136.589 94.7285 136.457 94.8425 136.349C94.9565 136.241 95.0885 136.16 95.2385 136.106C95.3945 136.046 95.5565 136.016 95.7245 136.016C95.8925 136.016 96.0515 136.046 96.2015 136.106C96.3575 136.16 96.4925 136.241 96.6065 136.349C96.7205 136.457 96.8105 136.589 96.8765 136.745C96.9485 136.901 96.9845 137.075 96.9845 137.267ZM96.3815 137.267C96.3815 137.057 96.3155 136.892 96.1835 136.772C96.0575 136.646 95.9045 136.583 95.7245 136.583C95.5445 136.583 95.3885 136.646 95.2565 136.772C95.1305 136.892 95.0675 137.057 95.0675 137.267C95.0675 137.477 95.1305 137.645 95.2565 137.771C95.3885 137.891 95.5445 137.951 95.7245 137.951C95.9045 137.951 96.0575 137.891 96.1835 137.771C96.3155 137.645 96.3815 137.477 96.3815 137.267Z" fill="white" fill-opacity="0.7"/>
<rect width="10" height="0.5" transform="matrix(-1 -1.49678e-07 -6.17423e-08 1 118 133)" fill="white" fill-opacity="0.5"/>
<rect width="10" height="0.5" transform="matrix(-1 -1.49678e-07 -6.17423e-08 1 118 117)" fill="white" fill-opacity="0.5"/>
<rect width="10" height="0.5" transform="matrix(-1 -1.49678e-07 -6.17423e-08 1 118 150)" fill="white" fill-opacity="0.5"/>
<path d="M135.203 74.356C135.203 74.572 135.158 74.782 135.068 74.986C134.984 75.184 134.87 75.382 134.726 75.58C134.582 75.772 134.42 75.964 134.24 76.156C134.06 76.342 133.88 76.525 133.7 76.705C133.598 76.807 133.478 76.927 133.34 77.065C133.208 77.203 133.082 77.347 132.962 77.497C132.842 77.647 132.74 77.791 132.656 77.929C132.578 78.067 132.539 78.187 132.539 78.289H135.41V79H131.63C131.624 78.964 131.621 78.928 131.621 78.892C131.621 78.856 131.621 78.823 131.621 78.793C131.621 78.511 131.666 78.25 131.756 78.01C131.852 77.764 131.975 77.533 132.125 77.317C132.275 77.101 132.443 76.897 132.629 76.705C132.815 76.513 132.998 76.327 133.178 76.147C133.328 76.003 133.469 75.862 133.601 75.724C133.739 75.58 133.859 75.439 133.961 75.301C134.069 75.157 134.153 75.01 134.213 74.86C134.279 74.71 134.312 74.551 134.312 74.383C134.312 74.203 134.282 74.05 134.222 73.924C134.168 73.798 134.093 73.693 133.997 73.609C133.901 73.525 133.787 73.465 133.655 73.429C133.529 73.387 133.394 73.366 133.25 73.366C133.076 73.366 132.917 73.39 132.773 73.438C132.629 73.486 132.5 73.543 132.386 73.609C132.272 73.669 132.176 73.735 132.098 73.807C132.02 73.873 131.96 73.924 131.918 73.96L131.504 73.366C131.558 73.306 131.639 73.234 131.747 73.15C131.855 73.06 131.984 72.976 132.134 72.898C132.284 72.82 132.452 72.754 132.638 72.7C132.824 72.646 133.025 72.619 133.241 72.619C133.895 72.619 134.384 72.772 134.708 73.078C135.038 73.378 135.203 73.804 135.203 74.356ZM136.53 75.877C136.53 74.833 136.713 74.029 137.079 73.465C137.451 72.901 137.964 72.619 138.618 72.619C139.272 72.619 139.782 72.901 140.148 73.465C140.52 74.029 140.706 74.833 140.706 75.877C140.706 76.921 140.52 77.725 140.148 78.289C139.782 78.853 139.272 79.135 138.618 79.135C137.964 79.135 137.451 78.853 137.079 78.289C136.713 77.725 136.53 76.921 136.53 75.877ZM139.824 75.877C139.824 75.535 139.803 75.211 139.761 74.905C139.725 74.599 139.659 74.332 139.563 74.104C139.473 73.876 139.35 73.696 139.194 73.564C139.038 73.426 138.846 73.357 138.618 73.357C138.39 73.357 138.198 73.426 138.042 73.564C137.886 73.696 137.76 73.876 137.664 74.104C137.574 74.332 137.508 74.599 137.466 74.905C137.43 75.211 137.412 75.535 137.412 75.877C137.412 76.219 137.43 76.543 137.466 76.849C137.508 77.155 137.574 77.422 137.664 77.65C137.76 77.878 137.886 78.061 138.042 78.199C138.198 78.331 138.39 78.397 138.618 78.397C138.846 78.397 139.038 78.331 139.194 78.199C139.35 78.061 139.473 77.878 139.563 77.65C139.659 77.422 139.725 77.155 139.761 76.849C139.803 76.543 139.824 76.219 139.824 75.877ZM143.914 73.267C143.914 73.459 143.878 73.633 143.806 73.789C143.74 73.945 143.65 74.077 143.536 74.185C143.422 74.293 143.287 74.377 143.131 74.437C142.981 74.491 142.822 74.518 142.654 74.518C142.486 74.518 142.324 74.491 142.168 74.437C142.018 74.377 141.886 74.293 141.772 74.185C141.658 74.077 141.565 73.945 141.493 73.789C141.427 73.633 141.394 73.459 141.394 73.267C141.394 73.075 141.427 72.901 141.493 72.745C141.565 72.589 141.658 72.457 141.772 72.349C141.886 72.241 142.018 72.16 142.168 72.106C142.324 72.046 142.486 72.016 142.654 72.016C142.822 72.016 142.981 72.046 143.131 72.106C143.287 72.16 143.422 72.241 143.536 72.349C143.65 72.457 143.74 72.589 143.806 72.745C143.878 72.901 143.914 73.075 143.914 73.267ZM143.311 73.267C143.311 73.057 143.245 72.892 143.113 72.772C142.987 72.646 142.834 72.583 142.654 72.583C142.474 72.583 142.318 72.646 142.186 72.772C142.06 72.892 141.997 73.057 141.997 73.267C141.997 73.477 142.06 73.645 142.186 73.771C142.318 73.891 142.474 73.951 142.654 73.951C142.834 73.951 142.987 73.891 143.113 73.771C143.245 73.645 143.311 73.477 143.311 73.267Z" fill="white" fill-opacity="0.7"/>
<path d="M130.837 91.05C131.179 90.918 131.512 90.75 131.836 90.546C132.16 90.336 132.457 90.075 132.727 89.763H133.321V96H132.484V90.924C132.412 90.99 132.322 91.059 132.214 91.131C132.112 91.203 131.998 91.272 131.872 91.338C131.752 91.404 131.623 91.467 131.485 91.527C131.353 91.587 131.224 91.638 131.098 91.68L130.837 91.05ZM135.53 92.877C135.53 91.833 135.713 91.029 136.079 90.465C136.451 89.901 136.964 89.619 137.618 89.619C138.272 89.619 138.782 89.901 139.148 90.465C139.52 91.029 139.706 91.833 139.706 92.877C139.706 93.921 139.52 94.725 139.148 95.289C138.782 95.853 138.272 96.135 137.618 96.135C136.964 96.135 136.451 95.853 136.079 95.289C135.713 94.725 135.53 93.921 135.53 92.877ZM138.824 92.877C138.824 92.535 138.803 92.211 138.761 91.905C138.725 91.599 138.659 91.332 138.563 91.104C138.473 90.876 138.35 90.696 138.194 90.564C138.038 90.426 137.846 90.357 137.618 90.357C137.39 90.357 137.198 90.426 137.042 90.564C136.886 90.696 136.76 90.876 136.664 91.104C136.574 91.332 136.508 91.599 136.466 91.905C136.43 92.211 136.412 92.535 136.412 92.877C136.412 93.219 136.43 93.543 136.466 93.849C136.508 94.155 136.574 94.422 136.664 94.65C136.76 94.878 136.886 95.061 137.042 95.199C137.198 95.331 137.39 95.397 137.618 95.397C137.846 95.397 138.038 95.331 138.194 95.199C138.35 95.061 138.473 94.878 138.563 94.65C138.659 94.422 138.725 94.155 138.761 93.849C138.803 93.543 138.824 93.219 138.824 92.877ZM142.914 90.267C142.914 90.459 142.878 90.633 142.806 90.789C142.74 90.945 142.65 91.077 142.536 91.185C142.422 91.293 142.287 91.377 142.131 91.437C141.981 91.491 141.822 91.518 141.654 91.518C141.486 91.518 141.324 91.491 141.168 91.437C141.018 91.377 140.886 91.293 140.772 91.185C140.658 91.077 140.565 90.945 140.493 90.789C140.427 90.633 140.394 90.459 140.394 90.267C140.394 90.075 140.427 89.901 140.493 89.745C140.565 89.589 140.658 89.457 140.772 89.349C140.886 89.241 141.018 89.16 141.168 89.106C141.324 89.046 141.486 89.016 141.654 89.016C141.822 89.016 141.981 89.046 142.131 89.106C142.287 89.16 142.422 89.241 142.536 89.349C142.65 89.457 142.74 89.589 142.806 89.745C142.878 89.901 142.914 90.075 142.914 90.267ZM142.311 90.267C142.311 90.057 142.245 89.892 142.113 89.772C141.987 89.646 141.834 89.583 141.654 89.583C141.474 89.583 141.318 89.646 141.186 89.772C141.06 89.892 140.997 90.057 140.997 90.267C140.997 90.477 141.06 90.645 141.186 90.771C141.318 90.891 141.474 90.951 141.654 90.951C141.834 90.951 141.987 90.891 142.113 90.771C142.245 90.645 142.311 90.477 142.311 90.267Z" fill="white" fill-opacity="0.7"/>
<path d="M130.234 122.913H132.457V123.696H130.234V122.913ZM136.892 121.356C136.892 121.572 136.847 121.782 136.757 121.986C136.673 122.184 136.559 122.382 136.415 122.58C136.271 122.772 136.109 122.964 135.929 123.156C135.749 123.342 135.569 123.525 135.389 123.705C135.287 123.807 135.167 123.927 135.029 124.065C134.897 124.203 134.771 124.347 134.651 124.497C134.531 124.647 134.429 124.791 134.345 124.929C134.267 125.067 134.228 125.187 134.228 125.289H137.099V126H133.319C133.313 125.964 133.31 125.928 133.31 125.892C133.31 125.856 133.31 125.823 133.31 125.793C133.31 125.511 133.355 125.25 133.445 125.01C133.541 124.764 133.664 124.533 133.814 124.317C133.964 124.101 134.132 123.897 134.318 123.705C134.504 123.513 134.687 123.327 134.867 123.147C135.017 123.003 135.158 122.862 135.29 122.724C135.428 122.58 135.548 122.439 135.65 122.301C135.758 122.157 135.842 122.01 135.902 121.86C135.968 121.71 136.001 121.551 136.001 121.383C136.001 121.203 135.971 121.05 135.911 120.924C135.857 120.798 135.782 120.693 135.686 120.609C135.59 120.525 135.476 120.465 135.344 120.429C135.218 120.387 135.083 120.366 134.939 120.366C134.765 120.366 134.606 120.39 134.462 120.438C134.318 120.486 134.189 120.543 134.075 120.609C133.961 120.669 133.865 120.735 133.787 120.807C133.709 120.873 133.649 120.924 133.607 120.96L133.193 120.366C133.247 120.306 133.328 120.234 133.436 120.15C133.544 120.06 133.673 119.976 133.823 119.898C133.973 119.82 134.141 119.754 134.327 119.7C134.513 119.646 134.714 119.619 134.93 119.619C135.584 119.619 136.073 119.772 136.397 120.078C136.727 120.378 136.892 120.804 136.892 121.356ZM138.22 122.877C138.22 121.833 138.403 121.029 138.769 120.465C139.141 119.901 139.654 119.619 140.308 119.619C140.962 119.619 141.472 119.901 141.838 120.465C142.21 121.029 142.396 121.833 142.396 122.877C142.396 123.921 142.21 124.725 141.838 125.289C141.472 125.853 140.962 126.135 140.308 126.135C139.654 126.135 139.141 125.853 138.769 125.289C138.403 124.725 138.22 123.921 138.22 122.877ZM141.514 122.877C141.514 122.535 141.493 122.211 141.451 121.905C141.415 121.599 141.349 121.332 141.253 121.104C141.163 120.876 141.04 120.696 140.884 120.564C140.728 120.426 140.536 120.357 140.308 120.357C140.08 120.357 139.888 120.426 139.732 120.564C139.576 120.696 139.45 120.876 139.354 121.104C139.264 121.332 139.198 121.599 139.156 121.905C139.12 122.211 139.102 122.535 139.102 122.877C139.102 123.219 139.12 123.543 139.156 123.849C139.198 124.155 139.264 124.422 139.354 124.65C139.45 124.878 139.576 125.061 139.732 125.199C139.888 125.331 140.08 125.397 140.308 125.397C140.536 125.397 140.728 125.331 140.884 125.199C141.04 125.061 141.163 124.878 141.253 124.65C141.349 124.422 141.415 124.155 141.451 123.849C141.493 123.543 141.514 123.219 141.514 122.877ZM145.604 120.267C145.604 120.459 145.568 120.633 145.496 120.789C145.43 120.945 145.34 121.077 145.226 121.185C145.112 121.293 144.977 121.377 144.821 121.437C144.671 121.491 144.512 121.518 144.344 121.518C144.176 121.518 144.014 121.491 143.858 121.437C143.708 121.377 143.576 121.293 143.462 121.185C143.348 121.077 143.255 120.945 143.183 120.789C143.117 120.633 143.084 120.459 143.084 120.267C143.084 120.075 143.117 119.901 143.183 119.745C143.255 119.589 143.348 119.457 143.462 119.349C143.576 119.241 143.708 119.16 143.858 119.106C144.014 119.046 144.176 119.016 144.344 119.016C144.512 119.016 144.671 119.046 144.821 119.106C144.977 119.16 145.112 119.241 145.226 119.349C145.34 119.457 145.43 119.589 145.496 119.745C145.568 119.901 145.604 120.075 145.604 120.267ZM145.001 120.267C145.001 120.057 144.935 119.892 144.803 119.772C144.677 119.646 144.524 119.583 144.344 119.583C144.164 119.583 144.008 119.646 143.876 119.772C143.75 119.892 143.687 120.057 143.687 120.267C143.687 120.477 143.75 120.645 143.876 120.771C144.008 120.891 144.164 120.951 144.344 120.951C144.524 120.951 144.677 120.891 144.803 120.771C144.935 120.645 145.001 120.477 145.001 120.267Z" fill="white" fill-opacity="0.7"/>
<path d="M129.234 139.913H131.457V140.696H129.234V139.913ZM132.526 138.05C132.868 137.918 133.201 137.75 133.525 137.546C133.849 137.336 134.146 137.075 134.416 136.763H135.01V143H134.173V137.924C134.101 137.99 134.011 138.059 133.903 138.131C133.801 138.203 133.687 138.272 133.561 138.338C133.441 138.404 133.312 138.467 133.174 138.527C133.042 138.587 132.913 138.638 132.787 138.68L132.526 138.05ZM137.22 139.877C137.22 138.833 137.403 138.029 137.769 137.465C138.141 136.901 138.654 136.619 139.308 136.619C139.962 136.619 140.472 136.901 140.838 137.465C141.21 138.029 141.396 138.833 141.396 139.877C141.396 140.921 141.21 141.725 140.838 142.289C140.472 142.853 139.962 143.135 139.308 143.135C138.654 143.135 138.141 142.853 137.769 142.289C137.403 141.725 137.22 140.921 137.22 139.877ZM140.514 139.877C140.514 139.535 140.493 139.211 140.451 138.905C140.415 138.599 140.349 138.332 140.253 138.104C140.163 137.876 140.04 137.696 139.884 137.564C139.728 137.426 139.536 137.357 139.308 137.357C139.08 137.357 138.888 137.426 138.732 137.564C138.576 137.696 138.45 137.876 138.354 138.104C138.264 138.332 138.198 138.599 138.156 138.905C138.12 139.211 138.102 139.535 138.102 139.877C138.102 140.219 138.12 140.543 138.156 140.849C138.198 141.155 138.264 141.422 138.354 141.65C138.45 141.878 138.576 142.061 138.732 142.199C138.888 142.331 139.08 142.397 139.308 142.397C139.536 142.397 139.728 142.331 139.884 142.199C140.04 142.061 140.163 141.878 140.253 141.65C140.349 141.422 140.415 141.155 140.451 140.849C140.493 140.543 140.514 140.219 140.514 139.877ZM144.604 137.267C144.604 137.459 144.568 137.633 144.496 137.789C144.43 137.945 144.34 138.077 144.226 138.185C144.112 138.293 143.977 138.377 143.821 138.437C143.671 138.491 143.512 138.518 143.344 138.518C143.176 138.518 143.014 138.491 142.858 138.437C142.708 138.377 142.576 138.293 142.462 138.185C142.348 138.077 142.255 137.945 142.183 137.789C142.117 137.633 142.084 137.459 142.084 137.267C142.084 137.075 142.117 136.901 142.183 136.745C142.255 136.589 142.348 136.457 142.462 136.349C142.576 136.241 142.708 136.16 142.858 136.106C143.014 136.046 143.176 136.016 143.344 136.016C143.512 136.016 143.671 136.046 143.821 136.106C143.977 136.16 144.112 136.241 144.226 136.349C144.34 136.457 144.43 136.589 144.496 136.745C144.568 136.901 144.604 137.075 144.604 137.267ZM144.001 137.267C144.001 137.057 143.935 136.892 143.803 136.772C143.677 136.646 143.524 136.583 143.344 136.583C143.164 136.583 143.008 136.646 142.876 136.772C142.75 136.892 142.687 137.057 142.687 137.267C142.687 137.477 142.75 137.645 142.876 137.771C143.008 137.891 143.164 137.951 143.344 137.951C143.524 137.951 143.677 137.891 143.803 137.771C143.935 137.645 144.001 137.477 144.001 137.267Z" fill="white" fill-opacity="0.7"/>
</g>
<defs>
<clipPath id="clip0_528_293">
<rect width="226" height="220" fill="white"/>
</clipPath>
</defs>
</svg>
