<svg width="111" height="105" viewBox="0 0 111 105" fill="none" xmlns="http://www.w3.org/2000/svg">
<g clip-path="url(#clip0_531_404)">
<mask id="path-1-inside-1_531_404" fill="white">
<path fill-rule="evenodd" clip-rule="evenodd" d="M175 -17H-64V107H175V-17ZM3 83.507C3 85.0795 3.73174 86.5696 5.02469 87.4648C17.8546 96.3468 35.5102 101.833 55 101.833C75.0426 101.833 93.1456 96.0312 106.055 86.7007C107.301 85.8003 108 84.3399 108 82.8027V21.6629C108 20.1258 107.301 18.6653 106.055 17.7649C93.1456 8.43445 75.0426 2.63281 55 2.63281C35.5102 2.63281 17.8546 8.11878 5.02469 17.0009C3.73174 17.896 3 19.3861 3 20.9586V83.507Z"/>
</mask>
<path fill-rule="evenodd" clip-rule="evenodd" d="M175 -17H-64V107H175V-17ZM3 83.507C3 85.0795 3.73174 86.5696 5.02469 87.4648C17.8546 96.3468 35.5102 101.833 55 101.833C75.0426 101.833 93.1456 96.0312 106.055 86.7007C107.301 85.8003 108 84.3399 108 82.8027V21.6629C108 20.1258 107.301 18.6653 106.055 17.7649C93.1456 8.43445 75.0426 2.63281 55 2.63281C35.5102 2.63281 17.8546 8.11878 5.02469 17.0009C3.73174 17.896 3 19.3861 3 20.9586V83.507Z" fill="#212529"/>
<path d="M-64 -17V-19H-66V-17H-64ZM175 -17H177V-19H175V-17ZM-64 107H-66V109H-64V107ZM175 107V109H177V107H175ZM5.02469 87.4648L3.88628 89.1091L3.88628 89.1091L5.02469 87.4648ZM106.055 86.7007L107.227 88.3217L107.227 88.3217L106.055 86.7007ZM106.055 17.7649L107.227 16.144L107.227 16.144L106.055 17.7649ZM5.02469 17.0009L3.88628 15.3565L3.88628 15.3565L5.02469 17.0009ZM-64 -15H175V-19H-64V-15ZM-62 107V-17H-66V107H-62ZM175 105H-64V109H175V105ZM173 -17V107H177V-17H173ZM6.1631 85.8204C5.44448 85.3229 5 84.4666 5 83.507H1C1 85.6924 2.01901 87.8164 3.88628 89.1091L6.1631 85.8204ZM55 99.8328C35.8676 99.8328 18.6201 94.4443 6.16309 85.8204L3.88628 89.1091C17.0892 98.2494 35.1529 103.833 55 103.833V99.8328ZM104.884 85.0797C92.3569 94.1336 74.6768 99.8328 55 99.8328V103.833C75.4085 103.833 93.9343 97.9288 107.227 88.3217L104.884 85.0797ZM106 82.8027C106 83.7411 105.575 84.58 104.884 85.0797L107.227 88.3217C109.027 87.0206 110 84.9386 110 82.8027H106ZM106 21.6629V82.8027H110V21.6629H106ZM104.884 19.3859C105.575 19.8856 106 20.7246 106 21.6629H110C110 19.527 109.027 17.445 107.227 16.144L104.884 19.3859ZM55 4.63281C74.6768 4.63281 92.3569 10.3321 104.884 19.3859L107.227 16.144C93.9343 6.53683 75.4085 0.632812 55 0.632812V4.63281ZM6.16309 18.6453C18.6201 10.0214 35.8676 4.63281 55 4.63281V0.632812C35.1529 0.632812 17.0892 6.2162 3.88628 15.3565L6.16309 18.6453ZM5 20.9586C5 19.999 5.44448 19.1428 6.16309 18.6453L3.88628 15.3565C2.01901 16.6492 1 18.7732 1 20.9586H5ZM5 83.507V20.9586H1V83.507H5Z" fill="#D9D9D9" mask="url(#path-1-inside-1_531_404)"/>
<line x1="47" y1="51.5" x2="1" y2="51.5" stroke="white"/>
<line x1="62" y1="66.5" x2="48" y2="66.5" stroke="white"/>
<line x1="110" y1="51.5" x2="63" y2="51.5" stroke="white"/>
<line opacity="0.5" x1="59" y1="58.5" x2="51" y2="58.5" stroke="white"/>
<line opacity="0.5" x1="59" y1="74.5" x2="51" y2="74.5" stroke="white"/>
<line x1="66" y1="82.5" x2="44" y2="82.5" stroke="white"/>
<line opacity="0.5" x1="59" y1="90.5" x2="51" y2="90.5" stroke="white"/>
<circle cx="55" cy="51.5" r="2.5" stroke="white"/>
<path opacity="0.7" d="M31.5691 63.4C32.0251 63.224 32.4691 63 32.9011 62.728C33.3331 62.448 33.7291 62.1 34.0891 61.684H34.8811V70H33.7651V63.232C33.6691 63.32 33.5491 63.412 33.4051 63.508C33.2691 63.604 33.1171 63.696 32.9491 63.784C32.7891 63.872 32.6171 63.956 32.4331 64.036C32.2571 64.116 32.0851 64.184 31.9171 64.24L31.5691 63.4ZM37.8266 65.836C37.8266 64.444 38.0706 63.372 38.5586 62.62C39.0546 61.868 39.7386 61.492 40.6106 61.492C41.4826 61.492 42.1626 61.868 42.6506 62.62C43.1466 63.372 43.3946 64.444 43.3946 65.836C43.3946 67.228 43.1466 68.3 42.6506 69.052C42.1626 69.804 41.4826 70.18 40.6106 70.18C39.7386 70.18 39.0546 69.804 38.5586 69.052C38.0706 68.3 37.8266 67.228 37.8266 65.836ZM42.2186 65.836C42.2186 65.38 42.1906 64.948 42.1346 64.54C42.0866 64.132 41.9986 63.776 41.8706 63.472C41.7506 63.168 41.5866 62.928 41.3786 62.752C41.1706 62.568 40.9146 62.476 40.6106 62.476C40.3066 62.476 40.0506 62.568 39.8426 62.752C39.6346 62.928 39.4666 63.168 39.3386 63.472C39.2186 63.776 39.1306 64.132 39.0746 64.54C39.0266 64.948 39.0026 65.38 39.0026 65.836C39.0026 66.292 39.0266 66.724 39.0746 67.132C39.1306 67.54 39.2186 67.896 39.3386 68.2C39.4666 68.504 39.6346 68.748 39.8426 68.932C40.0506 69.108 40.3066 69.196 40.6106 69.196C40.9146 69.196 41.1706 69.108 41.3786 68.932C41.5866 68.748 41.7506 68.504 41.8706 68.2C41.9986 67.896 42.0866 67.54 42.1346 67.132C42.1906 66.724 42.2186 66.292 42.2186 65.836Z" fill="white"/>
<path opacity="0.7" d="M66.116 63.4C66.572 63.224 67.016 63 67.448 62.728C67.88 62.448 68.276 62.1 68.636 61.684H69.428V70H68.312V63.232C68.216 63.32 68.096 63.412 67.952 63.508C67.816 63.604 67.664 63.696 67.496 63.784C67.336 63.872 67.164 63.956 66.98 64.036C66.804 64.116 66.632 64.184 66.464 64.24L66.116 63.4ZM72.3734 65.836C72.3734 64.444 72.6174 63.372 73.1054 62.62C73.6014 61.868 74.2854 61.492 75.1574 61.492C76.0294 61.492 76.7094 61.868 77.1974 62.62C77.6934 63.372 77.9414 64.444 77.9414 65.836C77.9414 67.228 77.6934 68.3 77.1974 69.052C76.7094 69.804 76.0294 70.18 75.1574 70.18C74.2854 70.18 73.6014 69.804 73.1054 69.052C72.6174 68.3 72.3734 67.228 72.3734 65.836ZM76.7654 65.836C76.7654 65.38 76.7374 64.948 76.6814 64.54C76.6334 64.132 76.5454 63.776 76.4174 63.472C76.2974 63.168 76.1334 62.928 75.9254 62.752C75.7174 62.568 75.4614 62.476 75.1574 62.476C74.8534 62.476 74.5974 62.568 74.3894 62.752C74.1814 62.928 74.0134 63.168 73.8854 63.472C73.7654 63.776 73.6774 64.132 73.6214 64.54C73.5734 64.948 73.5494 65.38 73.5494 65.836C73.5494 66.292 73.5734 66.724 73.6214 67.132C73.6774 67.54 73.7654 67.896 73.8854 68.2C74.0134 68.504 74.1814 68.748 74.3894 68.932C74.5974 69.108 74.8534 69.196 75.1574 69.196C75.4614 69.196 75.7174 69.108 75.9254 68.932C76.1334 68.748 76.2974 68.504 76.4174 68.2C76.5454 67.896 76.6334 67.54 76.6814 67.132C76.7374 66.724 76.7654 66.292 76.7654 65.836Z" fill="white"/>
<path opacity="0.7" d="M32.0571 79.808C32.0571 80.096 31.9971 80.376 31.8771 80.648C31.7651 80.912 31.6131 81.176 31.4211 81.44C31.2291 81.696 31.0131 81.952 30.7731 82.208C30.5331 82.456 30.2931 82.7 30.0531 82.94C29.9171 83.076 29.7571 83.236 29.5731 83.42C29.3971 83.604 29.2291 83.796 29.0691 83.996C28.9091 84.196 28.7731 84.388 28.6611 84.572C28.5571 84.756 28.5051 84.916 28.5051 85.052H32.3331V86H27.2931C27.2851 85.952 27.2811 85.904 27.2811 85.856C27.2811 85.808 27.2811 85.764 27.2811 85.724C27.2811 85.348 27.3411 85 27.4611 84.68C27.5891 84.352 27.7531 84.044 27.9531 83.756C28.1531 83.468 28.3771 83.196 28.6251 82.94C28.8731 82.684 29.1171 82.436 29.3571 82.196C29.5571 82.004 29.7451 81.816 29.9211 81.632C30.1051 81.44 30.2651 81.252 30.4011 81.068C30.5451 80.876 30.6571 80.68 30.7371 80.48C30.8251 80.28 30.8691 80.068 30.8691 79.844C30.8691 79.604 30.8291 79.4 30.7491 79.232C30.6771 79.064 30.5771 78.924 30.4491 78.812C30.3211 78.7 30.1691 78.62 29.9931 78.572C29.8251 78.516 29.6451 78.488 29.4531 78.488C29.2211 78.488 29.0091 78.52 28.8171 78.584C28.6251 78.648 28.4531 78.724 28.3011 78.812C28.1491 78.892 28.0211 78.98 27.9171 79.076C27.8131 79.164 27.7331 79.232 27.6771 79.28L27.1251 78.488C27.1971 78.408 27.3051 78.312 27.4491 78.2C27.5931 78.08 27.7651 77.968 27.9651 77.864C28.1651 77.76 28.3891 77.672 28.6371 77.6C28.8851 77.528 29.1531 77.492 29.4411 77.492C30.3131 77.492 30.9651 77.696 31.3971 78.104C31.8371 78.504 32.0571 79.072 32.0571 79.808ZM33.8266 81.836C33.8266 80.444 34.0706 79.372 34.5586 78.62C35.0546 77.868 35.7386 77.492 36.6106 77.492C37.4826 77.492 38.1626 77.868 38.6506 78.62C39.1466 79.372 39.3946 80.444 39.3946 81.836C39.3946 83.228 39.1466 84.3 38.6506 85.052C38.1626 85.804 37.4826 86.18 36.6106 86.18C35.7386 86.18 35.0546 85.804 34.5586 85.052C34.0706 84.3 33.8266 83.228 33.8266 81.836ZM38.2186 81.836C38.2186 81.38 38.1906 80.948 38.1346 80.54C38.0866 80.132 37.9986 79.776 37.8706 79.472C37.7506 79.168 37.5866 78.928 37.3786 78.752C37.1706 78.568 36.9146 78.476 36.6106 78.476C36.3066 78.476 36.0506 78.568 35.8426 78.752C35.6346 78.928 35.4666 79.168 35.3386 79.472C35.2186 79.776 35.1306 80.132 35.0746 80.54C35.0266 80.948 35.0026 81.38 35.0026 81.836C35.0026 82.292 35.0266 82.724 35.0746 83.132C35.1306 83.54 35.2186 83.896 35.3386 84.2C35.4666 84.504 35.6346 84.748 35.8426 84.932C36.0506 85.108 36.3066 85.196 36.6106 85.196C36.9146 85.196 37.1706 85.108 37.3786 84.932C37.5866 84.748 37.7506 84.504 37.8706 84.2C37.9986 83.896 38.0866 83.54 38.1346 83.132C38.1906 82.724 38.2186 82.292 38.2186 81.836Z" fill="white"/>
<path opacity="0.7" d="M74.604 79.808C74.604 80.096 74.544 80.376 74.424 80.648C74.312 80.912 74.16 81.176 73.968 81.44C73.776 81.696 73.56 81.952 73.32 82.208C73.08 82.456 72.84 82.7 72.6 82.94C72.464 83.076 72.304 83.236 72.12 83.42C71.944 83.604 71.776 83.796 71.616 83.996C71.456 84.196 71.32 84.388 71.208 84.572C71.104 84.756 71.052 84.916 71.052 85.052H74.88V86H69.84C69.832 85.952 69.828 85.904 69.828 85.856C69.828 85.808 69.828 85.764 69.828 85.724C69.828 85.348 69.888 85 70.008 84.68C70.136 84.352 70.3 84.044 70.5 83.756C70.7 83.468 70.924 83.196 71.172 82.94C71.42 82.684 71.664 82.436 71.904 82.196C72.104 82.004 72.292 81.816 72.468 81.632C72.652 81.44 72.812 81.252 72.948 81.068C73.092 80.876 73.204 80.68 73.284 80.48C73.372 80.28 73.416 80.068 73.416 79.844C73.416 79.604 73.376 79.4 73.296 79.232C73.224 79.064 73.124 78.924 72.996 78.812C72.868 78.7 72.716 78.62 72.54 78.572C72.372 78.516 72.192 78.488 72 78.488C71.768 78.488 71.556 78.52 71.364 78.584C71.172 78.648 71 78.724 70.848 78.812C70.696 78.892 70.568 78.98 70.464 79.076C70.36 79.164 70.28 79.232 70.224 79.28L69.672 78.488C69.744 78.408 69.852 78.312 69.996 78.2C70.14 78.08 70.312 77.968 70.512 77.864C70.712 77.76 70.936 77.672 71.184 77.6C71.432 77.528 71.7 77.492 71.988 77.492C72.86 77.492 73.512 77.696 73.944 78.104C74.384 78.504 74.604 79.072 74.604 79.808ZM76.3734 81.836C76.3734 80.444 76.6174 79.372 77.1054 78.62C77.6014 77.868 78.2854 77.492 79.1574 77.492C80.0294 77.492 80.7094 77.868 81.1974 78.62C81.6934 79.372 81.9414 80.444 81.9414 81.836C81.9414 83.228 81.6934 84.3 81.1974 85.052C80.7094 85.804 80.0294 86.18 79.1574 86.18C78.2854 86.18 77.6014 85.804 77.1054 85.052C76.6174 84.3 76.3734 83.228 76.3734 81.836ZM80.7654 81.836C80.7654 81.38 80.7374 80.948 80.6814 80.54C80.6334 80.132 80.5454 79.776 80.4174 79.472C80.2974 79.168 80.1334 78.928 79.9254 78.752C79.7174 78.568 79.4614 78.476 79.1574 78.476C78.8534 78.476 78.5974 78.568 78.3894 78.752C78.1814 78.928 78.0134 79.168 77.8854 79.472C77.7654 79.776 77.6774 80.132 77.6214 80.54C77.5734 80.948 77.5494 81.38 77.5494 81.836C77.5494 82.292 77.5734 82.724 77.6214 83.132C77.6774 83.54 77.7654 83.896 77.8854 84.2C78.0134 84.504 78.1814 84.748 78.3894 84.932C78.5974 85.108 78.8534 85.196 79.1574 85.196C79.4614 85.196 79.7174 85.108 79.9254 84.932C80.1334 84.748 80.2974 84.504 80.4174 84.2C80.5454 83.896 80.6334 83.54 80.6814 83.132C80.7374 82.724 80.7654 82.292 80.7654 81.836Z" fill="white"/>
<line x1="62" y1="37.5" x2="48" y2="37.5" stroke="white"/>
<line opacity="0.5" x1="59" y1="13.5" x2="51" y2="13.5" stroke="white"/>
<line opacity="0.5" x1="59" y1="29.5" x2="51" y2="29.5" stroke="white"/>
<line x1="66" y1="21.5" x2="44" y2="21.5" stroke="white"/>
<line opacity="0.5" x1="59" y1="45.5" x2="51" y2="45.5" stroke="white"/>
<path opacity="0.7" d="M31.5691 34.4C32.0251 34.224 32.4691 34 32.9011 33.728C33.3331 33.448 33.7291 33.1 34.0891 32.684H34.8811V41H33.7651V34.232C33.6691 34.32 33.5491 34.412 33.4051 34.508C33.2691 34.604 33.1171 34.696 32.9491 34.784C32.7891 34.872 32.6171 34.956 32.4331 35.036C32.2571 35.116 32.0851 35.184 31.9171 35.24L31.5691 34.4ZM37.8266 36.836C37.8266 35.444 38.0706 34.372 38.5586 33.62C39.0546 32.868 39.7386 32.492 40.6106 32.492C41.4826 32.492 42.1626 32.868 42.6506 33.62C43.1466 34.372 43.3946 35.444 43.3946 36.836C43.3946 38.228 43.1466 39.3 42.6506 40.052C42.1626 40.804 41.4826 41.18 40.6106 41.18C39.7386 41.18 39.0546 40.804 38.5586 40.052C38.0706 39.3 37.8266 38.228 37.8266 36.836ZM42.2186 36.836C42.2186 36.38 42.1906 35.948 42.1346 35.54C42.0866 35.132 41.9986 34.776 41.8706 34.472C41.7506 34.168 41.5866 33.928 41.3786 33.752C41.1706 33.568 40.9146 33.476 40.6106 33.476C40.3066 33.476 40.0506 33.568 39.8426 33.752C39.6346 33.928 39.4666 34.168 39.3386 34.472C39.2186 34.776 39.1306 35.132 39.0746 35.54C39.0266 35.948 39.0026 36.38 39.0026 36.836C39.0026 37.292 39.0266 37.724 39.0746 38.132C39.1306 38.54 39.2186 38.896 39.3386 39.2C39.4666 39.504 39.6346 39.748 39.8426 39.932C40.0506 40.108 40.3066 40.196 40.6106 40.196C40.9146 40.196 41.1706 40.108 41.3786 39.932C41.5866 39.748 41.7506 39.504 41.8706 39.2C41.9986 38.896 42.0866 38.54 42.1346 38.132C42.1906 37.724 42.2186 37.292 42.2186 36.836Z" fill="white"/>
<path opacity="0.7" d="M66.116 34.4C66.572 34.224 67.016 34 67.448 33.728C67.88 33.448 68.276 33.1 68.636 32.684H69.428V41H68.312V34.232C68.216 34.32 68.096 34.412 67.952 34.508C67.816 34.604 67.664 34.696 67.496 34.784C67.336 34.872 67.164 34.956 66.98 35.036C66.804 35.116 66.632 35.184 66.464 35.24L66.116 34.4ZM72.3734 36.836C72.3734 35.444 72.6174 34.372 73.1054 33.62C73.6014 32.868 74.2854 32.492 75.1574 32.492C76.0294 32.492 76.7094 32.868 77.1974 33.62C77.6934 34.372 77.9414 35.444 77.9414 36.836C77.9414 38.228 77.6934 39.3 77.1974 40.052C76.7094 40.804 76.0294 41.18 75.1574 41.18C74.2854 41.18 73.6014 40.804 73.1054 40.052C72.6174 39.3 72.3734 38.228 72.3734 36.836ZM76.7654 36.836C76.7654 36.38 76.7374 35.948 76.6814 35.54C76.6334 35.132 76.5454 34.776 76.4174 34.472C76.2974 34.168 76.1334 33.928 75.9254 33.752C75.7174 33.568 75.4614 33.476 75.1574 33.476C74.8534 33.476 74.5974 33.568 74.3894 33.752C74.1814 33.928 74.0134 34.168 73.8854 34.472C73.7654 34.776 73.6774 35.132 73.6214 35.54C73.5734 35.948 73.5494 36.38 73.5494 36.836C73.5494 37.292 73.5734 37.724 73.6214 38.132C73.6774 38.54 73.7654 38.896 73.8854 39.2C74.0134 39.504 74.1814 39.748 74.3894 39.932C74.5974 40.108 74.8534 40.196 75.1574 40.196C75.4614 40.196 75.7174 40.108 75.9254 39.932C76.1334 39.748 76.2974 39.504 76.4174 39.2C76.5454 38.896 76.6334 38.54 76.6814 38.132C76.7374 37.724 76.7654 37.292 76.7654 36.836Z" fill="white"/>
<path opacity="0.7" d="M32.0571 18.808C32.0571 19.096 31.9971 19.376 31.8771 19.648C31.7651 19.912 31.6131 20.176 31.4211 20.44C31.2291 20.696 31.0131 20.952 30.7731 21.208C30.5331 21.456 30.2931 21.7 30.0531 21.94C29.9171 22.076 29.7571 22.236 29.5731 22.42C29.3971 22.604 29.2291 22.796 29.0691 22.996C28.9091 23.196 28.7731 23.388 28.6611 23.572C28.5571 23.756 28.5051 23.916 28.5051 24.052H32.3331V25H27.2931C27.2851 24.952 27.2811 24.904 27.2811 24.856C27.2811 24.808 27.2811 24.764 27.2811 24.724C27.2811 24.348 27.3411 24 27.4611 23.68C27.5891 23.352 27.7531 23.044 27.9531 22.756C28.1531 22.468 28.3771 22.196 28.6251 21.94C28.8731 21.684 29.1171 21.436 29.3571 21.196C29.5571 21.004 29.7451 20.816 29.9211 20.632C30.1051 20.44 30.2651 20.252 30.4011 20.068C30.5451 19.876 30.6571 19.68 30.7371 19.48C30.8251 19.28 30.8691 19.068 30.8691 18.844C30.8691 18.604 30.8291 18.4 30.7491 18.232C30.6771 18.064 30.5771 17.924 30.4491 17.812C30.3211 17.7 30.1691 17.62 29.9931 17.572C29.8251 17.516 29.6451 17.488 29.4531 17.488C29.2211 17.488 29.0091 17.52 28.8171 17.584C28.6251 17.648 28.4531 17.724 28.3011 17.812C28.1491 17.892 28.0211 17.98 27.9171 18.076C27.8131 18.164 27.7331 18.232 27.6771 18.28L27.1251 17.488C27.1971 17.408 27.3051 17.312 27.4491 17.2C27.5931 17.08 27.7651 16.968 27.9651 16.864C28.1651 16.76 28.3891 16.672 28.6371 16.6C28.8851 16.528 29.1531 16.492 29.4411 16.492C30.3131 16.492 30.9651 16.696 31.3971 17.104C31.8371 17.504 32.0571 18.072 32.0571 18.808ZM33.8266 20.836C33.8266 19.444 34.0706 18.372 34.5586 17.62C35.0546 16.868 35.7386 16.492 36.6106 16.492C37.4826 16.492 38.1626 16.868 38.6506 17.62C39.1466 18.372 39.3946 19.444 39.3946 20.836C39.3946 22.228 39.1466 23.3 38.6506 24.052C38.1626 24.804 37.4826 25.18 36.6106 25.18C35.7386 25.18 35.0546 24.804 34.5586 24.052C34.0706 23.3 33.8266 22.228 33.8266 20.836ZM38.2186 20.836C38.2186 20.38 38.1906 19.948 38.1346 19.54C38.0866 19.132 37.9986 18.776 37.8706 18.472C37.7506 18.168 37.5866 17.928 37.3786 17.752C37.1706 17.568 36.9146 17.476 36.6106 17.476C36.3066 17.476 36.0506 17.568 35.8426 17.752C35.6346 17.928 35.4666 18.168 35.3386 18.472C35.2186 18.776 35.1306 19.132 35.0746 19.54C35.0266 19.948 35.0026 20.38 35.0026 20.836C35.0026 21.292 35.0266 21.724 35.0746 22.132C35.1306 22.54 35.2186 22.896 35.3386 23.2C35.4666 23.504 35.6346 23.748 35.8426 23.932C36.0506 24.108 36.3066 24.196 36.6106 24.196C36.9146 24.196 37.1706 24.108 37.3786 23.932C37.5866 23.748 37.7506 23.504 37.8706 23.2C37.9986 22.896 38.0866 22.54 38.1346 22.132C38.1906 21.724 38.2186 21.292 38.2186 20.836Z" fill="white"/>
<path opacity="0.7" d="M74.604 18.808C74.604 19.096 74.544 19.376 74.424 19.648C74.312 19.912 74.16 20.176 73.968 20.44C73.776 20.696 73.56 20.952 73.32 21.208C73.08 21.456 72.84 21.7 72.6 21.94C72.464 22.076 72.304 22.236 72.12 22.42C71.944 22.604 71.776 22.796 71.616 22.996C71.456 23.196 71.32 23.388 71.208 23.572C71.104 23.756 71.052 23.916 71.052 24.052H74.88V25H69.84C69.832 24.952 69.828 24.904 69.828 24.856C69.828 24.808 69.828 24.764 69.828 24.724C69.828 24.348 69.888 24 70.008 23.68C70.136 23.352 70.3 23.044 70.5 22.756C70.7 22.468 70.924 22.196 71.172 21.94C71.42 21.684 71.664 21.436 71.904 21.196C72.104 21.004 72.292 20.816 72.468 20.632C72.652 20.44 72.812 20.252 72.948 20.068C73.092 19.876 73.204 19.68 73.284 19.48C73.372 19.28 73.416 19.068 73.416 18.844C73.416 18.604 73.376 18.4 73.296 18.232C73.224 18.064 73.124 17.924 72.996 17.812C72.868 17.7 72.716 17.62 72.54 17.572C72.372 17.516 72.192 17.488 72 17.488C71.768 17.488 71.556 17.52 71.364 17.584C71.172 17.648 71 17.724 70.848 17.812C70.696 17.892 70.568 17.98 70.464 18.076C70.36 18.164 70.28 18.232 70.224 18.28L69.672 17.488C69.744 17.408 69.852 17.312 69.996 17.2C70.14 17.08 70.312 16.968 70.512 16.864C70.712 16.76 70.936 16.672 71.184 16.6C71.432 16.528 71.7 16.492 71.988 16.492C72.86 16.492 73.512 16.696 73.944 17.104C74.384 17.504 74.604 18.072 74.604 18.808ZM76.3734 20.836C76.3734 19.444 76.6174 18.372 77.1054 17.62C77.6014 16.868 78.2854 16.492 79.1574 16.492C80.0294 16.492 80.7094 16.868 81.1974 17.62C81.6934 18.372 81.9414 19.444 81.9414 20.836C81.9414 22.228 81.6934 23.3 81.1974 24.052C80.7094 24.804 80.0294 25.18 79.1574 25.18C78.2854 25.18 77.6014 24.804 77.1054 24.052C76.6174 23.3 76.3734 22.228 76.3734 20.836ZM80.7654 20.836C80.7654 20.38 80.7374 19.948 80.6814 19.54C80.6334 19.132 80.5454 18.776 80.4174 18.472C80.2974 18.168 80.1334 17.928 79.9254 17.752C79.7174 17.568 79.4614 17.476 79.1574 17.476C78.8534 17.476 78.5974 17.568 78.3894 17.752C78.1814 17.928 78.0134 18.168 77.8854 18.472C77.7654 18.776 77.6774 19.132 77.6214 19.54C77.5734 19.948 77.5494 20.38 77.5494 20.836C77.5494 21.292 77.5734 21.724 77.6214 22.132C77.6774 22.54 77.7654 22.896 77.8854 23.2C78.0134 23.504 78.1814 23.748 78.3894 23.932C78.5974 24.108 78.8534 24.196 79.1574 24.196C79.4614 24.196 79.7174 24.108 79.9254 23.932C80.1334 23.748 80.2974 23.504 80.4174 23.2C80.5454 22.896 80.6334 22.54 80.6814 22.132C80.7374 21.724 80.7654 21.292 80.7654 20.836Z" fill="white"/>
</g>
<defs>
<clipPath id="clip0_531_404">
<rect width="111" height="105" fill="white"/>
</clipPath>
</defs>
</svg>
