<svg width="30" height="30" viewBox="0 0 30 30" fill="none" xmlns="http://www.w3.org/2000/svg">
<g clip-path="url(#clip0_510_513)">
<path d="M28.9284 28.9294L1.07129 1.07227" stroke="white" stroke-linecap="round" stroke-linejoin="round"/>
<path d="M5.357 5.35742H19.2856C19.8539 5.35742 20.3989 5.58319 20.8008 5.98504C21.2027 6.38691 21.4284 6.93195 21.4284 7.50028V10.7146L27.4713 8.03599C27.6341 7.97312 27.8101 7.95103 27.9834 7.97162C28.1568 7.99224 28.3226 8.05489 28.4662 8.15419C28.6098 8.25347 28.727 8.38637 28.8076 8.5413C28.8881 8.69623 28.9297 8.86851 28.9284 9.04314V20.9574C28.9297 21.132 28.8881 21.3043 28.8076 21.4593C28.727 21.6142 28.6098 21.7471 28.4662 21.8463C28.3226 21.9457 28.1568 22.0083 27.9834 22.0289C27.8101 22.0496 27.6341 22.0274 27.4713 21.9646L21.4284 19.286V21.4289M1.07129 7.50028V22.5003C1.07129 23.0686 1.29705 23.6137 1.69892 24.0155C2.10078 24.4173 2.64582 24.6431 3.21415 24.6431H18.2141" stroke="white" stroke-linecap="round" stroke-linejoin="round"/>
</g>
<defs>
<clipPath id="clip0_510_513">
<rect width="30" height="30" fill="white"/>
</clipPath>
</defs>
</svg>
