<svg width="22" height="22" viewBox="0 0 22 22" fill="none" xmlns="http://www.w3.org/2000/svg">
<path d="M20.1456 5.89202L15.7142 7.85631V5.49916C15.7142 5.08239 15.5487 4.6827 15.254 4.38799C14.9593 4.0933 14.5596 3.92773 14.1428 3.92773H2.35707C1.9403 3.92773 1.54061 4.0933 1.2459 4.38799C0.951206 4.6827 0.785645 5.08239 0.785645 5.49916V16.4992C0.785645 16.9159 0.951206 17.3157 1.2459 17.6103C1.54061 17.905 1.9403 18.0706 2.35707 18.0706H14.1428C14.5596 18.0706 14.9593 17.905 15.254 17.6103C15.5487 17.3157 15.7142 16.9159 15.7142 16.4992V14.142L20.1456 16.1063C20.2651 16.1523 20.3941 16.1687 20.5212 16.1534C20.6483 16.1384 20.77 16.0925 20.8753 16.0196C20.9805 15.9468 21.0665 15.8494 21.1256 15.7358C21.1847 15.6221 21.2152 15.4958 21.2142 15.3677V6.63059C21.2152 6.50254 21.1847 6.37619 21.1256 6.26258C21.0665 6.14896 20.9805 6.0515 20.8753 5.9787C20.77 5.90588 20.6483 5.85993 20.5212 5.84481C20.3941 5.82971 20.2651 5.84591 20.1456 5.89202Z" stroke="white" stroke-width="1.5" stroke-linecap="round" stroke-linejoin="round"/>
</svg>
