<svg width="22" height="22" viewBox="0 0 22 22" fill="none" xmlns="http://www.w3.org/2000/svg">
<g clip-path="url(#clip0_507_339)">
<path d="M21.2142 21.2137L0.785645 0.785156" stroke="white" stroke-width="1.5" stroke-linecap="round" stroke-linejoin="round"/>
<path d="M3.9285 3.92773H14.1428C14.5596 3.92773 14.9593 4.0933 15.254 4.38799C15.5487 4.6827 15.7142 5.08239 15.7142 5.49916V7.85631L20.1456 5.89202C20.2651 5.84591 20.3941 5.82971 20.5212 5.84481C20.6483 5.85993 20.77 5.90588 20.8753 5.9787C20.9805 6.0515 21.0665 6.14896 21.1256 6.26258C21.1847 6.37619 21.2152 6.50254 21.2142 6.63059V15.3677C21.2152 15.4958 21.1847 15.6221 21.1256 15.7358C21.0665 15.8494 20.9805 15.9468 20.8753 16.0196C20.77 16.0925 20.6483 16.1384 20.5212 16.1534C20.3941 16.1687 20.2651 16.1523 20.1456 16.1063L15.7142 14.142V15.7134M0.785645 5.49916V16.4992C0.785645 16.9159 0.951206 17.3157 1.2459 17.6103C1.54061 17.905 1.9403 18.0706 2.35707 18.0706H13.3571" stroke="white" stroke-width="1.5" stroke-linecap="round" stroke-linejoin="round"/>
</g>
<defs>
<clipPath id="clip0_507_339">
<rect width="22" height="22" fill="white"/>
</clipPath>
</defs>
</svg>
