<svg width="22" height="22" viewBox="0 0 22 22" fill="none" xmlns="http://www.w3.org/2000/svg">
<g clip-path="url(#clip0_511_517)">
<path d="M8.21883 3.53516L8.89454 1.79087C9.0085 1.49554 9.209 1.24152 9.46976 1.06206C9.73054 0.882607 10.0394 0.786091 10.356 0.785156H11.6445C11.9611 0.786091 12.27 0.882607 12.5307 1.06206C12.7915 1.24152 12.992 1.49554 13.106 1.79087L13.7817 3.53516L16.0759 4.85516L17.9302 4.5723C18.239 4.53039 18.5533 4.58121 18.8331 4.71832C19.1129 4.85542 19.3456 5.07261 19.5016 5.3423L20.1302 6.4423C20.2913 6.71628 20.3656 7.03265 20.3431 7.34967C20.3207 7.66669 20.2026 7.96946 20.0045 8.21801L18.8573 9.67944V12.3194L20.0359 13.7809C20.2341 14.0294 20.3521 14.3322 20.3746 14.6492C20.397 14.9662 20.3227 15.2826 20.1616 15.5566L19.5331 16.6566C19.377 16.9262 19.1443 17.1434 18.8646 17.2806C18.5847 17.4176 18.2704 17.4685 17.9616 17.4266L16.1073 17.1437L13.8131 18.4637L13.1374 20.208C13.0234 20.5033 12.823 20.7574 12.5622 20.9368C12.3014 21.1163 11.9925 21.2128 11.676 21.2137H10.356C10.0394 21.2128 9.73054 21.1163 9.46976 20.9368C9.209 20.7574 9.0085 20.5033 8.89454 20.208L8.21883 18.4637L5.92454 17.1437L4.07026 17.4266C3.7615 17.4685 3.44725 17.4176 3.16744 17.2806C2.88765 17.1434 2.65492 16.9262 2.49883 16.6566L1.87026 15.5566C1.70918 15.2826 1.63498 14.9662 1.65742 14.6492C1.67986 14.3322 1.79791 14.0294 1.99597 13.7809L3.14311 12.3194V9.67944L1.96454 8.21801C1.76648 7.96946 1.64843 7.66669 1.62599 7.34967C1.60355 7.03265 1.67776 6.71628 1.83883 6.4423L2.4674 5.3423C2.62349 5.07261 2.85622 4.85542 3.13601 4.71832C3.41582 4.58121 3.73007 4.53039 4.03883 4.5723L5.89311 4.85516L8.21883 3.53516ZM7.8574 10.9994C7.8574 11.621 8.04173 12.2287 8.38707 12.7455C8.73242 13.2624 9.22325 13.6652 9.79753 13.9031C10.3718 14.1409 11.0037 14.2032 11.6134 14.0819C12.223 13.9606 12.7831 13.6613 13.2226 13.2218C13.6621 12.7822 13.9615 12.2222 14.0827 11.6126C14.204 11.0029 14.1418 10.371 13.9039 9.79672C13.666 9.22244 13.2632 8.73159 12.7463 8.38625C12.2295 8.04091 11.6219 7.85658 11.0003 7.85658C10.1667 7.85658 9.36732 8.1877 8.77793 8.77711C8.18853 9.36651 7.8574 10.1659 7.8574 10.9994Z" stroke="white" stroke-width="1.5" stroke-linecap="round" stroke-linejoin="round"/>
</g>
<defs>
<clipPath id="clip0_511_517">
<rect width="22" height="22" fill="white"/>
</clipPath>
</defs>
</svg>
